<svg width="370" height="520" viewBox="0 0 370 520" fill="none" xmlns="http://www.w3.org/2000/svg">
<rect x="0.5" y="0.5" width="369" height="408" rx="23.5" fill="#FFD9D9"/>
<rect x="0.5" y="0.5" width="369" height="408" rx="23.5" stroke="#EAEAEA"/>
<g clip-path="url(#clip0)">
<path d="M72.648 482C72.296 482 72 481.88 71.76 481.64C71.52 481.4 71.4 481.104 71.4 480.752V464.504C71.4 464.136 71.52 463.84 71.76 463.616C72 463.376 72.296 463.256 72.648 463.256H77.448C78.648 463.256 79.712 463.52 80.64 464.048C81.568 464.576 82.288 465.312 82.8 466.256C83.328 467.184 83.592 468.256 83.592 469.472C83.592 470.64 83.328 471.68 82.8 472.592C82.288 473.504 81.568 474.216 80.64 474.728C79.712 475.24 78.648 475.496 77.448 475.496H73.896V480.752C73.896 481.104 73.776 481.4 73.536 481.64C73.312 481.88 73.016 482 72.648 482ZM73.896 473.192H77.448C78.536 473.192 79.432 472.848 80.136 472.16C80.84 471.456 81.192 470.56 81.192 469.472C81.192 468.704 81.032 468.032 80.712 467.456C80.392 466.864 79.952 466.4 79.392 466.064C78.832 465.728 78.184 465.56 77.448 465.56H73.896V473.192ZM86.5931 482C85.7931 482 85.3931 481.6 85.3931 480.8V470.072C85.3931 469.272 85.7931 468.872 86.5931 468.872C87.3931 468.872 87.7931 469.272 87.7931 470.072V470.528C88.2731 469.968 88.8571 469.528 89.5451 469.208C90.2491 468.888 91.0091 468.728 91.8251 468.728C92.7851 468.728 93.4971 468.888 93.9611 469.208C94.4411 469.512 94.6251 469.88 94.5131 470.312C94.4331 470.648 94.2731 470.872 94.0331 470.984C93.7931 471.08 93.5131 471.096 93.1931 471.032C92.1691 470.824 91.2491 470.808 90.4331 470.984C89.6171 471.16 88.9691 471.488 88.4891 471.968C88.0251 472.448 87.7931 473.056 87.7931 473.792V480.8C87.7931 481.6 87.3931 482 86.5931 482ZM100.856 482.096C99.6881 482.096 98.6401 481.808 97.7121 481.232C96.7841 480.64 96.0481 479.848 95.5041 478.856C94.9761 477.848 94.7121 476.712 94.7121 475.448C94.7121 474.184 95.0001 473.048 95.5761 472.04C96.1681 471.032 96.9601 470.24 97.9521 469.664C98.9601 469.072 100.088 468.776 101.336 468.776C102.584 468.776 103.704 469.072 104.696 469.664C105.688 470.24 106.472 471.032 107.048 472.04C107.64 473.048 107.936 474.184 107.936 475.448V480.8C107.936 481.152 107.816 481.448 107.576 481.688C107.352 481.912 107.064 482.024 106.712 482.024C106.36 482.024 106.064 481.912 105.824 481.688C105.6 481.448 105.488 481.152 105.488 480.8V479.912C104.928 480.584 104.248 481.12 103.448 481.52C102.664 481.904 101.8 482.096 100.856 482.096ZM101.336 479.936C102.152 479.936 102.88 479.744 103.52 479.36C104.16 478.96 104.664 478.424 105.032 477.752C105.4 477.064 105.584 476.296 105.584 475.448C105.584 474.584 105.4 473.816 105.032 473.144C104.664 472.456 104.16 471.92 103.52 471.536C102.88 471.136 102.152 470.936 101.336 470.936C100.536 470.936 99.8081 471.136 99.1521 471.536C98.5121 471.92 98.0001 472.456 97.6161 473.144C97.2481 473.816 97.0641 474.584 97.0641 475.448C97.0641 476.296 97.2481 477.064 97.6161 477.752C98.0001 478.424 98.5121 478.96 99.1521 479.36C99.8081 479.744 100.536 479.936 101.336 479.936ZM116.811 482.096C115.531 482.096 114.387 481.808 113.379 481.232C112.387 480.64 111.603 479.848 111.027 478.856C110.467 477.848 110.187 476.712 110.187 475.448C110.187 474.152 110.467 473 111.027 471.992C111.587 470.984 112.355 470.2 113.331 469.64C114.307 469.064 115.427 468.776 116.691 468.776C118.579 468.776 120.147 469.496 121.395 470.936C121.619 471.192 121.699 471.456 121.635 471.728C121.571 472 121.395 472.24 121.107 472.448C120.883 472.608 120.635 472.664 120.363 472.616C120.091 472.552 119.843 472.408 119.619 472.184C118.835 471.352 117.859 470.936 116.691 470.936C115.459 470.936 114.459 471.352 113.691 472.184C112.923 473 112.539 474.088 112.539 475.448C112.539 476.312 112.715 477.08 113.067 477.752C113.435 478.424 113.939 478.96 114.579 479.36C115.219 479.744 115.963 479.936 116.811 479.936C117.899 479.936 118.779 479.656 119.451 479.096C119.707 478.888 119.971 478.776 120.243 478.76C120.515 478.728 120.755 478.8 120.963 478.976C121.235 479.2 121.387 479.456 121.419 479.744C121.451 480.016 121.355 480.264 121.131 480.488C119.979 481.56 118.539 482.096 116.811 482.096ZM129.329 482C128.529 482 127.809 481.8 127.169 481.4C126.529 480.984 126.025 480.424 125.657 479.72C125.289 479.016 125.105 478.224 125.105 477.344V471.416H124.001C123.665 471.416 123.393 471.32 123.185 471.128C122.977 470.936 122.873 470.696 122.873 470.408C122.873 470.088 122.977 469.832 123.185 469.64C123.393 469.448 123.665 469.352 124.001 469.352H125.105V465.896C125.105 465.544 125.217 465.256 125.441 465.032C125.665 464.808 125.953 464.696 126.305 464.696C126.657 464.696 126.945 464.808 127.169 465.032C127.393 465.256 127.505 465.544 127.505 465.896V469.352H129.545C129.881 469.352 130.153 469.448 130.361 469.64C130.569 469.832 130.673 470.088 130.673 470.408C130.673 470.696 130.569 470.936 130.361 471.128C130.153 471.32 129.881 471.416 129.545 471.416H127.505V477.344C127.505 477.984 127.681 478.52 128.033 478.952C128.385 479.384 128.817 479.6 129.329 479.6H130.145C130.433 479.6 130.673 479.712 130.865 479.936C131.073 480.16 131.177 480.448 131.177 480.8C131.177 481.152 131.041 481.44 130.769 481.664C130.513 481.888 130.177 482 129.761 482H129.329ZM134.93 482C134.578 482 134.282 481.888 134.042 481.664C133.818 481.424 133.706 481.128 133.706 480.776V470.096C133.706 469.728 133.818 469.432 134.042 469.208C134.282 468.984 134.578 468.872 134.93 468.872C135.298 468.872 135.594 468.984 135.818 469.208C136.042 469.432 136.154 469.728 136.154 470.096V480.776C136.154 481.128 136.042 481.424 135.818 481.664C135.594 481.888 135.298 482 134.93 482ZM134.93 466.736C134.498 466.736 134.122 466.584 133.802 466.28C133.498 465.96 133.346 465.584 133.346 465.152C133.346 464.72 133.498 464.352 133.802 464.048C134.122 463.728 134.498 463.568 134.93 463.568C135.362 463.568 135.73 463.728 136.034 464.048C136.354 464.352 136.514 464.72 136.514 465.152C136.514 465.584 136.354 465.96 136.034 466.28C135.73 466.584 135.362 466.736 134.93 466.736ZM145.94 482.096C144.66 482.096 143.516 481.808 142.508 481.232C141.516 480.64 140.732 479.848 140.156 478.856C139.596 477.848 139.316 476.712 139.316 475.448C139.316 474.152 139.596 473 140.156 471.992C140.716 470.984 141.484 470.2 142.46 469.64C143.436 469.064 144.556 468.776 145.82 468.776C147.708 468.776 149.276 469.496 150.524 470.936C150.748 471.192 150.828 471.456 150.764 471.728C150.7 472 150.524 472.24 150.236 472.448C150.012 472.608 149.764 472.664 149.492 472.616C149.22 472.552 148.972 472.408 148.748 472.184C147.964 471.352 146.988 470.936 145.82 470.936C144.588 470.936 143.588 471.352 142.82 472.184C142.052 473 141.668 474.088 141.668 475.448C141.668 476.312 141.844 477.08 142.196 477.752C142.564 478.424 143.068 478.96 143.708 479.36C144.348 479.744 145.092 479.936 145.94 479.936C147.028 479.936 147.908 479.656 148.58 479.096C148.836 478.888 149.1 478.776 149.372 478.76C149.644 478.728 149.884 478.8 150.092 478.976C150.364 479.2 150.516 479.456 150.548 479.744C150.58 480.016 150.484 480.264 150.26 480.488C149.108 481.56 147.668 482.096 145.94 482.096ZM159.154 482.096C157.986 482.096 156.938 481.808 156.01 481.232C155.082 480.64 154.346 479.848 153.802 478.856C153.274 477.848 153.01 476.712 153.01 475.448C153.01 474.184 153.298 473.048 153.874 472.04C154.466 471.032 155.258 470.24 156.25 469.664C157.258 469.072 158.386 468.776 159.634 468.776C160.882 468.776 162.002 469.072 162.994 469.664C163.986 470.24 164.77 471.032 165.346 472.04C165.938 473.048 166.234 474.184 166.234 475.448V480.8C166.234 481.152 166.115 481.448 165.875 481.688C165.651 481.912 165.363 482.024 165.01 482.024C164.658 482.024 164.362 481.912 164.122 481.688C163.898 481.448 163.786 481.152 163.786 480.8V479.912C163.226 480.584 162.546 481.12 161.746 481.52C160.962 481.904 160.098 482.096 159.154 482.096ZM159.634 479.936C160.45 479.936 161.178 479.744 161.818 479.36C162.458 478.96 162.962 478.424 163.33 477.752C163.698 477.064 163.883 476.296 163.883 475.448C163.883 474.584 163.698 473.816 163.33 473.144C162.962 472.456 162.458 471.92 161.818 471.536C161.178 471.136 160.45 470.936 159.634 470.936C158.834 470.936 158.106 471.136 157.45 471.536C156.81 471.92 156.298 472.456 155.914 473.144C155.546 473.816 155.362 474.584 155.362 475.448C155.362 476.296 155.546 477.064 155.914 477.752C156.298 478.424 156.81 478.96 157.45 479.36C158.106 479.744 158.834 479.936 159.634 479.936ZM172.278 482C171.574 482 170.95 481.808 170.406 481.424C169.862 481.04 169.438 480.52 169.134 479.864C168.83 479.192 168.678 478.424 168.678 477.56V464.456C168.678 464.104 168.79 463.816 169.014 463.592C169.238 463.368 169.526 463.256 169.878 463.256C170.23 463.256 170.518 463.368 170.742 463.592C170.966 463.816 171.078 464.104 171.078 464.456V477.56C171.078 478.152 171.19 478.64 171.414 479.024C171.638 479.408 171.926 479.6 172.278 479.6H172.878C173.198 479.6 173.454 479.712 173.646 479.936C173.854 480.16 173.958 480.448 173.958 480.8C173.958 481.152 173.806 481.44 173.502 481.664C173.198 481.888 172.806 482 172.326 482H172.278ZM190.848 482.24C189.44 482.24 188.152 482.008 186.984 481.544C185.816 481.064 184.808 480.4 183.96 479.552C183.128 478.688 182.48 477.672 182.016 476.504C181.552 475.32 181.32 474.024 181.32 472.616C181.32 471.208 181.552 469.92 182.016 468.752C182.48 467.584 183.128 466.576 183.96 465.728C184.808 464.864 185.816 464.2 186.984 463.736C188.152 463.256 189.44 463.016 190.848 463.016C192.256 463.016 193.536 463.256 194.688 463.736C195.856 464.2 196.864 464.864 197.712 465.728C198.56 466.576 199.216 467.584 199.68 468.752C200.144 469.92 200.376 471.208 200.376 472.616C200.376 474.024 200.144 475.32 199.68 476.504C199.216 477.672 198.56 478.688 197.712 479.552C196.864 480.4 195.856 481.064 194.688 481.544C193.536 482.008 192.256 482.24 190.848 482.24ZM190.848 479.984C192.24 479.984 193.472 479.664 194.544 479.024C195.616 478.368 196.456 477.488 197.064 476.384C197.672 475.264 197.976 474.008 197.976 472.616C197.976 471.224 197.672 469.976 197.064 468.872C196.456 467.752 195.616 466.872 194.544 466.232C193.472 465.592 192.24 465.272 190.848 465.272C189.456 465.272 188.224 465.592 187.152 466.232C186.08 466.872 185.24 467.752 184.632 468.872C184.024 469.976 183.72 471.224 183.72 472.616C183.72 474.008 184.024 475.264 184.632 476.384C185.24 477.488 186.08 478.368 187.152 479.024C188.224 479.664 189.456 479.984 190.848 479.984ZM204.526 482C203.726 482 203.326 481.6 203.326 480.8V470.072C203.326 469.272 203.726 468.872 204.526 468.872C205.326 468.872 205.726 469.272 205.726 470.072V470.528C206.206 469.968 206.79 469.528 207.478 469.208C208.182 468.888 208.942 468.728 209.758 468.728C210.718 468.728 211.43 468.888 211.894 469.208C212.374 469.512 212.558 469.88 212.446 470.312C212.366 470.648 212.206 470.872 211.966 470.984C211.726 471.08 211.446 471.096 211.126 471.032C210.102 470.824 209.182 470.808 208.366 470.984C207.55 471.16 206.902 471.488 206.422 471.968C205.958 472.448 205.726 473.056 205.726 473.792V480.8C205.726 481.6 205.326 482 204.526 482ZM215.742 482C215.39 482 215.094 481.888 214.854 481.664C214.63 481.424 214.518 481.128 214.518 480.776V470.096C214.518 469.728 214.63 469.432 214.854 469.208C215.094 468.984 215.39 468.872 215.742 468.872C216.11 468.872 216.406 468.984 216.63 469.208C216.854 469.432 216.966 469.728 216.966 470.096V480.776C216.966 481.128 216.854 481.424 216.63 481.664C216.406 481.888 216.11 482 215.742 482ZM215.742 466.736C215.31 466.736 214.934 466.584 214.614 466.28C214.31 465.96 214.158 465.584 214.158 465.152C214.158 464.72 214.31 464.352 214.614 464.048C214.934 463.728 215.31 463.568 215.742 463.568C216.174 463.568 216.542 463.728 216.846 464.048C217.166 464.352 217.326 464.72 217.326 465.152C217.326 465.584 217.166 465.96 216.846 466.28C216.542 466.584 216.174 466.736 215.742 466.736ZM226.968 482.096C225.64 482.096 224.456 481.816 223.416 481.256C222.392 480.68 221.584 479.896 220.992 478.904C220.416 477.896 220.128 476.744 220.128 475.448C220.128 474.136 220.4 472.984 220.944 471.992C221.504 470.984 222.272 470.2 223.248 469.64C224.224 469.064 225.344 468.776 226.608 468.776C227.856 468.776 228.928 469.056 229.824 469.616C230.72 470.16 231.4 470.92 231.864 471.896C232.344 472.856 232.584 473.968 232.584 475.232C232.584 475.536 232.48 475.792 232.272 476C232.064 476.192 231.8 476.288 231.48 476.288H222.36C222.536 477.392 223.04 478.296 223.872 479C224.72 479.688 225.752 480.032 226.968 480.032C227.464 480.032 227.968 479.944 228.48 479.768C229.008 479.576 229.432 479.36 229.752 479.12C229.992 478.944 230.248 478.856 230.52 478.856C230.808 478.84 231.056 478.92 231.264 479.096C231.536 479.336 231.68 479.6 231.696 479.888C231.712 480.176 231.584 480.424 231.312 480.632C230.768 481.064 230.088 481.416 229.272 481.688C228.472 481.96 227.704 482.096 226.968 482.096ZM226.608 470.84C225.424 470.84 224.472 471.168 223.752 471.824C223.032 472.48 222.576 473.328 222.384 474.368H230.376C230.232 473.344 229.84 472.504 229.2 471.848C228.56 471.176 227.696 470.84 226.608 470.84ZM236.21 482.024C235.858 482.024 235.562 481.912 235.322 481.688C235.098 481.448 234.986 481.152 234.986 480.8V470.096C234.986 469.728 235.098 469.432 235.322 469.208C235.562 468.984 235.858 468.872 236.21 468.872C236.578 468.872 236.874 468.984 237.098 469.208C237.322 469.432 237.434 469.728 237.434 470.096V470.36C237.93 469.864 238.53 469.472 239.234 469.184C239.938 468.896 240.698 468.752 241.514 468.752C242.618 468.752 243.602 468.992 244.466 469.472C245.346 469.936 246.034 470.624 246.53 471.536C247.042 472.448 247.298 473.568 247.298 474.896V480.8C247.298 481.152 247.178 481.448 246.938 481.688C246.714 481.912 246.426 482.024 246.074 482.024C245.722 482.024 245.426 481.912 245.186 481.688C244.962 481.448 244.85 481.152 244.85 480.8V474.896C244.85 473.536 244.482 472.544 243.746 471.92C243.026 471.28 242.122 470.96 241.034 470.96C240.362 470.96 239.754 471.096 239.21 471.368C238.666 471.64 238.234 472.008 237.914 472.472C237.594 472.92 237.434 473.44 237.434 474.032V480.8C237.434 481.152 237.322 481.448 237.098 481.688C236.874 481.912 236.578 482.024 236.21 482.024ZM255.402 482C254.602 482 253.882 481.8 253.242 481.4C252.602 480.984 252.098 480.424 251.73 479.72C251.362 479.016 251.178 478.224 251.178 477.344V471.416H250.074C249.738 471.416 249.466 471.32 249.258 471.128C249.05 470.936 248.946 470.696 248.946 470.408C248.946 470.088 249.05 469.832 249.258 469.64C249.466 469.448 249.738 469.352 250.074 469.352H251.178V465.896C251.178 465.544 251.29 465.256 251.514 465.032C251.738 464.808 252.026 464.696 252.378 464.696C252.73 464.696 253.018 464.808 253.242 465.032C253.466 465.256 253.578 465.544 253.578 465.896V469.352H255.618C255.954 469.352 256.226 469.448 256.434 469.64C256.642 469.832 256.746 470.088 256.746 470.408C256.746 470.696 256.642 470.936 256.434 471.128C256.226 471.32 255.954 471.416 255.618 471.416H253.578V477.344C253.578 477.984 253.754 478.52 254.106 478.952C254.458 479.384 254.89 479.6 255.402 479.6H256.218C256.506 479.6 256.746 479.712 256.938 479.936C257.146 480.16 257.25 480.448 257.25 480.8C257.25 481.152 257.114 481.44 256.842 481.664C256.586 481.888 256.25 482 255.834 482H255.402ZM265.706 482.096C264.378 482.096 263.194 481.816 262.154 481.256C261.13 480.68 260.322 479.896 259.73 478.904C259.154 477.896 258.866 476.744 258.866 475.448C258.866 474.136 259.138 472.984 259.682 471.992C260.242 470.984 261.01 470.2 261.986 469.64C262.962 469.064 264.082 468.776 265.346 468.776C266.594 468.776 267.666 469.056 268.562 469.616C269.458 470.16 270.138 470.92 270.602 471.896C271.082 472.856 271.322 473.968 271.322 475.232C271.322 475.536 271.218 475.792 271.01 476C270.802 476.192 270.538 476.288 270.218 476.288H261.098C261.274 477.392 261.778 478.296 262.61 479C263.458 479.688 264.49 480.032 265.706 480.032C266.202 480.032 266.706 479.944 267.218 479.768C267.746 479.576 268.17 479.36 268.49 479.12C268.73 478.944 268.986 478.856 269.258 478.856C269.546 478.84 269.794 478.92 270.002 479.096C270.274 479.336 270.418 479.6 270.434 479.888C270.45 480.176 270.322 480.424 270.05 480.632C269.506 481.064 268.826 481.416 268.01 481.688C267.21 481.96 266.442 482.096 265.706 482.096ZM265.346 470.84C264.162 470.84 263.21 471.168 262.49 471.824C261.77 472.48 261.314 473.328 261.122 474.368H269.114C268.97 473.344 268.578 472.504 267.938 471.848C267.298 471.176 266.434 470.84 265.346 470.84ZM279.208 482.096C277.96 482.096 276.832 481.808 275.824 481.232C274.832 480.64 274.04 479.84 273.448 478.832C272.872 477.824 272.584 476.688 272.584 475.424C272.584 474.16 272.848 473.032 273.376 472.04C273.92 471.032 274.656 470.24 275.584 469.664C276.512 469.072 277.56 468.776 278.728 468.776C279.672 468.776 280.544 468.976 281.344 469.376C282.144 469.76 282.816 470.288 283.36 470.96V464.48C283.36 464.112 283.472 463.816 283.696 463.592C283.936 463.368 284.232 463.256 284.584 463.256C284.952 463.256 285.248 463.368 285.472 463.592C285.696 463.816 285.808 464.112 285.808 464.48V475.424C285.808 476.688 285.512 477.824 284.92 478.832C284.344 479.84 283.56 480.64 282.568 481.232C281.576 481.808 280.456 482.096 279.208 482.096ZM279.208 479.936C280.024 479.936 280.752 479.744 281.392 479.36C282.032 478.96 282.536 478.416 282.904 477.728C283.272 477.04 283.456 476.272 283.456 475.424C283.456 474.56 283.272 473.792 282.904 473.12C282.536 472.448 282.032 471.92 281.392 471.536C280.752 471.136 280.024 470.936 279.208 470.936C278.408 470.936 277.68 471.136 277.024 471.536C276.384 471.92 275.872 472.448 275.488 473.12C275.12 473.792 274.936 474.56 274.936 475.424C274.936 476.272 275.12 477.04 275.488 477.728C275.872 478.416 276.384 478.96 277.024 479.36C277.68 479.744 278.408 479.936 279.208 479.936Z" fill="black"/>
</g>
<rect width="370" height="410" rx="26" fill="#FFD5D5" fill-opacity="0.66"/>
<g clip-path="url(#clip1)">
<path d="M180.051 304.86C243.592 304.86 295.102 253.18 295.102 189.43C295.102 125.68 243.592 74 180.051 74C116.51 74 65 125.68 65 189.43C65 253.18 116.51 304.86 180.051 304.86Z" fill="#F9B2B2"/>
<path d="M112.776 256.517L170.455 304.758C176.784 305.167 229.052 307.728 265.905 266.042C297.45 230.399 295.306 187.996 294.694 180.007C278.462 162.493 262.128 144.979 245.897 127.464L205.573 147.027L200.468 139.858L167.29 144.671L162.594 139.96L157.898 142.316L150.242 130.537L113.389 154.094C120.024 165.77 126.558 177.344 133.194 189.02C132.785 192.503 132.275 195.985 131.866 199.365L112.776 256.517Z" fill="#FF5F5F"/>
<path d="M228.95 161.366H219.456C219.456 156.655 207.614 156.655 207.614 142.316C207.614 131.561 218.231 123.265 228.95 123.265C239.669 123.265 250.286 131.561 250.286 142.316C250.286 156.552 238.444 156.552 238.444 161.366H228.95Z" fill="#FFEB99"/>
<path d="M238.444 161.366C241.099 161.366 243.14 163.517 243.14 166.078C243.14 168.741 240.996 170.789 238.444 170.789H219.456C216.802 170.789 214.76 168.638 214.76 166.078C214.76 163.415 216.904 161.366 219.456 161.366H238.444Z" fill="#57A4FF"/>
<path d="M238.444 170.892C241.099 170.892 243.14 173.042 243.14 175.603C243.14 178.266 240.996 180.314 238.444 180.314H219.456C216.802 180.314 214.76 178.163 214.76 175.603C214.76 172.94 216.904 170.892 219.456 170.892H238.444Z" fill="#57A4FF"/>
<path d="M238.444 180.417V185.128C238.444 187.791 236.3 189.84 233.748 189.84H224.254C221.6 189.84 219.558 187.689 219.558 185.128V180.417H238.444Z" fill="#C6C5CA"/>
<path d="M250.286 142.316C250.286 156.552 238.444 156.552 238.444 161.366H228.95C228.95 156.655 240.792 156.655 240.792 142.316C240.792 133.098 233.136 125.826 224.152 123.88C225.684 123.47 227.317 123.368 228.848 123.368C239.669 123.265 250.286 131.561 250.286 142.316Z" fill="#FFDE55"/>
<path d="M243.14 166.078C243.14 168.741 240.996 170.789 238.444 170.789H228.95C231.605 170.789 233.646 168.638 233.646 166.078C233.646 163.415 231.502 161.366 228.95 161.366H238.444C241.099 161.366 243.14 163.517 243.14 166.078Z" fill="#2488FF"/>
<path d="M243.14 175.603C243.14 178.266 240.996 180.314 238.444 180.314H228.95C231.605 180.314 233.646 178.163 233.646 175.603C233.646 172.94 231.502 170.892 228.95 170.892H238.444C241.099 170.892 243.14 173.042 243.14 175.603Z" fill="#2488FF"/>
<path d="M238.444 180.417V185.128C238.444 187.791 236.3 189.84 233.748 189.84H224.254C226.909 189.84 228.95 187.689 228.95 185.128V180.417H238.444Z" fill="#ACABB1"/>
<path d="M205.675 249.757L207.614 256.517H175.151C182.093 251.6 186.278 243.611 186.278 235.11H190.974C193.628 235.11 195.67 232.959 195.67 230.399V225.585C195.67 222.922 193.526 220.874 190.974 220.874H186.278V208.993L150.752 199.467L134.112 208.993V220.874H129.314C126.66 220.874 124.618 223.024 124.618 225.585V230.296C124.618 232.959 126.762 235.008 129.314 235.008H134.01C134.01 243.509 138.196 251.498 145.138 256.414H112.776L114.818 249.245C116.656 242.894 117.574 236.339 117.472 229.784V224.254C117.472 201.516 134.725 181.851 157.286 180.417C180.766 178.778 201.183 196.6 202.714 220.259C202.816 221.181 202.816 222.205 202.816 223.127V229.887C202.918 236.647 203.837 243.304 205.675 249.757Z" fill="#FFDE55"/>
<path d="M207.614 256.517H198.12L196.181 249.757C194.751 244.738 193.833 239.617 193.526 234.393C194.956 233.472 195.772 232.038 195.772 230.399V225.585C195.772 223.844 194.854 222.308 193.322 221.488C192.506 200.389 176.376 182.977 155.448 180.724C156.061 180.622 156.673 180.622 157.286 180.519C180.766 178.88 201.183 196.702 202.714 220.361C202.816 221.283 202.816 222.308 202.816 223.229V229.989C202.816 236.647 203.735 243.407 205.573 249.859L207.614 256.517Z" fill="#FFCD00"/>
<path d="M195.772 225.585V230.296C195.772 232.959 193.628 235.008 191.076 235.008H186.38V220.771H191.076C193.628 220.874 195.772 222.922 195.772 225.585Z" fill="#FFC477"/>
<path d="M186.278 208.89V235.11C186.278 249.552 174.64 261.33 160.144 261.33C145.648 261.33 134.01 249.654 134.01 235.11V208.89L150.65 199.365L186.278 208.89Z" fill="#FFDAAA"/>
<path d="M186.278 208.89V235.11C186.278 249.552 174.64 261.228 160.144 261.33C158.511 261.33 156.98 261.228 155.448 260.921C159.123 260.306 162.594 258.77 165.657 256.619C172.599 251.703 176.784 243.714 176.784 235.213V208.993L147.69 201.106L150.752 199.365L186.278 208.89Z" fill="#FFC477"/>
<path d="M150.65 147.027L145.954 148.154L148.404 152.353L141.667 159.113L137.481 156.655L136.46 161.366H126.966L125.843 156.655L121.658 159.113L114.92 152.353L117.37 148.154L112.674 147.027V137.502L117.37 136.375L114.92 132.176L121.658 125.416L125.843 127.874L126.966 123.163H136.46L137.583 127.874L141.769 125.416L148.506 132.176L146.056 136.375L150.752 137.502V147.027H150.65Z" fill="#FFEB99"/>
<path d="M131.764 149.485C135.711 149.485 138.91 146.275 138.91 142.316C138.91 138.356 135.711 135.146 131.764 135.146C127.818 135.146 124.618 138.356 124.618 142.316C124.618 146.275 127.818 149.485 131.764 149.485Z" fill="#C6C5CA"/>
<path d="M134.112 220.874V235.11H129.314C126.66 235.11 124.618 232.959 124.618 230.399V225.585C124.618 222.922 126.762 220.874 129.314 220.874H134.112Z" fill="#FFC477"/>
<path d="M209.86 255.8L207.921 249.04C206.083 242.792 205.164 236.339 205.266 229.887V223.127C205.266 198.136 185.155 177.959 160.246 177.959C159.225 177.959 158.205 177.959 157.184 178.061C133.194 180.007 114.92 200.184 115.124 224.254V229.784C115.124 236.135 114.205 242.485 112.47 248.63L110.428 255.8C110.224 256.517 110.326 257.234 110.837 257.848C111.245 258.463 111.96 258.77 112.776 258.77H144.525C154.019 265.12 166.371 265.12 175.968 258.77H207.716C208.431 258.77 209.146 258.463 209.656 257.848C209.962 257.336 210.064 256.517 209.86 255.8ZM160.144 258.872C147.077 258.872 136.46 248.22 136.46 235.11V210.324L151.059 201.925L183.93 210.734V235.11C183.828 248.22 173.313 258.872 160.144 258.872ZM181.378 254.161C185.564 249.552 188.014 243.714 188.524 237.466H190.974C194.854 237.466 198.12 234.291 198.12 230.296V225.585C198.12 221.693 194.956 218.415 190.974 218.415H188.626V208.89C188.626 207.764 187.912 206.842 186.891 206.534L151.365 197.009C150.752 196.907 150.14 196.907 149.527 197.214L132.887 206.739C132.173 207.149 131.662 207.968 131.662 208.788V218.313H129.314C125.435 218.313 122.168 221.488 122.168 225.483V230.194C122.168 234.086 125.333 237.364 129.314 237.364H131.764C132.275 243.509 134.827 249.449 138.91 254.058H115.839L117.064 249.859C118.901 243.304 119.82 236.544 119.82 229.682V224.151C119.514 202.54 135.95 184.411 157.388 182.67C179.643 181.134 198.835 198.033 200.264 220.361C200.366 221.283 200.366 222.205 200.366 223.024V229.784C200.366 236.749 201.387 243.611 203.225 250.269L204.245 253.956L181.378 254.161ZM188.626 232.755V223.229H190.974C192.301 223.229 193.322 224.254 193.322 225.585V230.296C193.322 231.628 192.301 232.652 190.974 232.652H188.626V232.755ZM131.764 223.229V232.755H129.314C127.987 232.755 126.966 231.73 126.966 230.399V225.585C126.966 224.254 127.987 223.229 129.314 223.229H131.764Z" fill="black"/>
<path d="M252.634 142.316C252.634 129.513 240.384 120.909 228.95 120.909C217.517 120.909 205.266 129.513 205.266 142.316C204.96 149.178 208.533 155.733 214.556 159.113C214.964 159.42 215.475 159.727 215.883 160.035C212.514 161.981 211.391 166.283 213.331 169.662C213.535 170.072 213.842 170.482 214.25 170.892C213.025 172.223 212.412 173.862 212.412 175.603C212.412 178.573 214.352 181.339 217.108 182.363V185.128C217.108 189.02 220.273 192.298 224.254 192.298H233.748C237.628 192.298 240.894 189.123 240.894 185.128V182.363C243.753 181.339 245.59 178.676 245.59 175.603C245.59 173.862 244.876 172.121 243.753 170.892C246.407 168.024 246.203 163.62 243.344 160.957C242.936 160.649 242.528 160.342 242.119 160.035C242.528 159.727 243.038 159.318 243.447 159.113C249.368 155.733 252.941 149.178 252.634 142.316ZM236.096 185.128C236.096 186.46 235.075 187.484 233.748 187.484H224.254C222.927 187.484 221.906 186.46 221.906 185.128V182.773H236.096V185.128ZM238.444 177.959H219.456C218.129 177.959 217.108 176.934 217.108 175.603C217.108 174.271 218.129 173.247 219.456 173.247H238.444C239.771 173.247 240.792 174.271 240.792 175.603C240.792 176.934 239.771 177.959 238.444 177.959ZM238.444 168.433H219.456C218.129 168.433 217.108 167.409 217.108 166.078C217.108 164.746 218.129 163.722 219.456 163.722H238.444C239.771 163.722 240.792 164.746 240.792 166.078C240.792 167.409 239.771 168.433 238.444 168.433ZM240.69 155.118C239.057 156.04 237.73 157.372 236.709 158.908H231.4V144.671H236.096V139.96H221.906V144.671H226.602V159.011H221.294C220.273 157.474 218.844 156.143 217.312 155.221C213.944 152.865 210.064 150.202 210.064 142.418C210.064 132.586 220.069 125.723 229.052 125.723C238.036 125.723 248.04 132.586 248.04 142.418C247.938 150.1 244.059 152.763 240.69 155.118Z" fill="black"/>
<path d="M226.602 197.009H231.298V201.721H226.602V197.009Z" fill="black"/>
<path d="M231.298 206.534V227.941C231.298 229.272 230.277 230.296 228.95 230.296H209.962V225.585H226.602V206.534H231.298Z" fill="black"/>
<path d="M131.764 151.841C136.971 151.841 141.258 147.539 141.258 142.316C141.258 137.092 136.971 132.79 131.764 132.79C126.558 132.79 122.27 137.092 122.27 142.316C122.27 147.539 126.456 151.841 131.764 151.841ZM131.764 137.604C134.419 137.604 136.46 139.755 136.46 142.316C136.46 144.876 134.316 147.027 131.764 147.027C129.11 147.027 127.068 144.876 127.068 142.316C127.068 139.755 129.11 137.604 131.764 137.604Z" fill="black"/>
<path d="M151.263 135.249L149.629 134.839L150.446 133.405C150.956 132.483 150.854 131.254 150.14 130.537L143.402 123.777C142.585 123.06 141.462 122.855 140.544 123.47L139.115 124.289L138.706 122.651C138.4 121.626 137.481 120.807 136.358 120.807H126.864C125.741 120.807 124.822 121.524 124.516 122.651L124.108 124.289L122.679 123.47C121.76 122.958 120.535 123.06 119.82 123.777L113.083 130.537C112.266 131.357 112.164 132.483 112.776 133.405L113.593 134.839L111.96 135.249C110.939 135.556 110.122 136.478 110.122 137.604V147.13C110.122 148.256 110.837 149.178 111.96 149.485L113.593 149.895L112.776 151.329C112.266 152.251 112.368 153.48 113.083 154.197L119.82 160.957C120.637 161.674 121.76 161.878 122.679 161.264L124.108 160.444L124.516 162.083C124.822 163.107 125.741 163.927 126.864 163.927H136.46C137.583 163.927 138.502 163.21 138.808 162.083L139.217 160.444L140.646 161.264C141.565 161.776 142.79 161.674 143.504 160.957L150.242 154.197C151.059 153.377 151.161 152.251 150.548 151.329L149.629 149.793L151.263 149.383C152.284 149.076 153.1 148.154 153.1 147.027V137.502C153.1 136.478 152.284 135.556 151.263 135.249ZM148.302 145.184L145.444 145.9C144.729 146.105 144.117 146.617 143.81 147.334C143.504 148.051 143.606 148.871 144.015 149.485L145.546 152.046L141.462 156.143L138.91 154.606C138.298 154.197 137.481 154.197 136.767 154.504C136.052 154.811 135.541 155.426 135.337 156.143L134.623 159.011H128.804L128.089 156.143C127.885 155.426 127.375 154.811 126.66 154.504C125.945 154.197 125.129 154.299 124.516 154.606L121.964 156.143L117.881 152.046L119.412 149.485C119.82 148.871 119.82 148.051 119.616 147.334C119.31 146.617 118.697 146.105 117.983 145.9L115.124 145.184V139.345L117.983 138.628C118.697 138.424 119.31 137.912 119.616 137.195C119.922 136.478 119.82 135.658 119.412 135.044L117.881 132.483L121.964 128.386L124.516 129.923C125.129 130.332 125.945 130.332 126.66 130.127C127.375 129.82 127.885 129.206 128.089 128.489L128.804 125.621H134.623L135.337 128.489C135.541 129.206 136.052 129.82 136.767 130.127C137.481 130.435 138.298 130.332 138.91 129.923L141.462 128.386L145.546 132.483L144.015 135.044C143.606 135.658 143.606 136.478 143.81 137.195C144.117 137.912 144.729 138.424 145.444 138.628L148.302 139.345V145.184Z" fill="black"/>
<path d="M157.796 139.96H162.492V144.671H157.796V139.96Z" fill="black"/>
<path d="M167.29 139.96H200.468V144.671H167.29V139.96Z" fill="black"/>
<path d="M129.314 168.433H134.01V182.67H129.314V168.433Z" fill="black"/>
</g>
<defs>
<clipPath id="clip0">
<rect width="323" height="83" fill="white" transform="translate(23.5 433)"/>
</clipPath>
<clipPath id="clip1">
<rect width="230" height="230.962" fill="white" transform="translate(65 74)"/>
</clipPath>
</defs>
</svg>
