<svg width="370" height="409" viewBox="0 0 370 409" fill="none" xmlns="http://www.w3.org/2000/svg">
<rect x="0.5" y="0.5" width="369" height="408" rx="23.5" fill="#FFEBD9"/>
<g clip-path="url(#clip0)">
<path d="M182 317C245.513 317 297 265.513 297 202C297 138.487 245.513 87 182 87C118.487 87 67 138.487 67 202C67 265.513 118.487 317 182 317Z" fill="#C49A6C"/>
<path d="M110.586 276.32L240.562 151.597C259.002 173.837 277.442 195.965 295.994 218.205C294.094 229.604 288.283 254.527 268.054 277.661C254.085 293.642 238.774 302.471 229.051 307.053C220.333 310.965 205.805 316.106 187.141 317C169.93 317.782 155.96 314.541 147.131 311.747C141.655 306.83 136.067 301.801 130.591 296.883C123.997 289.954 117.292 283.137 110.586 276.32Z" fill="#A97C50"/>
<path d="M260.231 237.428C258.443 239.216 255.537 239.216 253.749 237.428L223.91 207.588L230.392 201.106L260.231 230.946C262.019 232.734 262.019 235.639 260.231 237.428Z" fill="#484B63"/>
<path d="M205.134 277.549H111.704C111.033 277.549 110.474 276.99 110.474 276.32V144.332C110.474 143.662 111.033 143.103 111.704 143.103H205.134C205.805 143.103 206.363 143.662 206.363 144.332V276.32C206.252 276.99 205.805 277.549 205.134 277.549Z" fill="#D8D5ED"/>
<path d="M137.52 266.932H121.65C120.98 266.932 120.421 266.373 120.421 265.703V218.876C120.421 218.205 120.98 217.646 121.65 217.646H137.52C138.19 217.646 138.749 218.205 138.749 218.876V265.814C138.638 266.485 138.079 266.932 137.52 266.932Z" fill="#FF2C5C"/>
<path d="M166.018 266.932H150.149C149.478 266.932 148.919 266.373 148.919 265.703V200.547C148.919 199.877 149.478 199.318 150.149 199.318H166.018C166.689 199.318 167.248 199.877 167.248 200.547V265.814C167.248 266.485 166.689 266.932 166.018 266.932Z" fill="#FFD659"/>
<path d="M195.188 266.932H179.318C178.647 266.932 178.088 266.373 178.088 265.703V207.253C178.088 206.582 178.647 206.023 179.318 206.023H195.188C195.858 206.023 196.417 206.582 196.417 207.253V265.814C196.417 266.485 195.858 266.932 195.188 266.932Z" fill="#4FC6F5"/>
<path d="M129.585 217.758V266.932H137.52C138.19 266.932 138.749 266.373 138.749 265.703V218.876C138.749 218.205 138.19 217.646 137.52 217.646H129.585V217.758Z" fill="#E62753"/>
<path d="M158.084 199.43V266.932H166.018C166.689 266.932 167.248 266.373 167.248 265.703V200.547C167.248 199.877 166.689 199.318 166.018 199.318H158.084V199.43Z" fill="#FFBD54"/>
<path d="M187.253 206.135V266.932H195.188C195.858 266.932 196.417 266.373 196.417 265.703V207.253C196.417 206.582 195.858 206.023 195.188 206.023H187.253V206.135Z" fill="#3BB3E3"/>
<path d="M124.109 157.632H190.941C192.17 157.632 193.176 156.626 193.176 155.396C193.176 154.167 192.17 153.161 190.941 153.161H124.109C122.879 153.161 121.874 154.167 121.874 155.396C121.874 156.626 122.879 157.632 124.109 157.632Z" fill="#50536E"/>
<path d="M190.941 163.331H124.109C122.879 163.331 121.874 164.337 121.874 165.567C121.874 166.796 122.879 167.802 124.109 167.802H190.941C192.17 167.802 193.176 166.796 193.176 165.567C193.176 164.337 192.17 163.331 190.941 163.331Z" fill="#50536E"/>
<path d="M190.941 173.501H124.109C122.879 173.501 121.874 174.507 121.874 175.737C121.874 176.966 122.879 177.972 124.109 177.972H190.941C192.17 177.972 193.176 176.966 193.176 175.737C193.176 174.507 192.17 173.501 190.941 173.501Z" fill="#50536E"/>
<path d="M141.096 183.56H124.109C122.879 183.56 121.874 184.566 121.874 185.795C121.874 187.024 122.879 188.03 124.109 188.03H141.208C142.437 188.03 143.443 187.024 143.443 185.795C143.443 184.566 142.326 183.56 141.096 183.56Z" fill="#50536E"/>
<path d="M198.205 223.122C224.869 223.122 246.485 201.507 246.485 174.843C246.485 148.178 224.869 126.563 198.205 126.563C171.541 126.563 149.925 148.178 149.925 174.843C149.925 201.507 171.541 223.122 198.205 223.122Z" fill="#50536E"/>
<path d="M225.921 202.559C210.61 217.87 185.8 217.87 170.489 202.559C155.178 187.248 155.178 162.437 170.489 147.126C185.8 131.815 210.61 131.815 225.921 147.126C241.232 162.437 241.232 187.248 225.921 202.559Z" fill="#B5FCFF"/>
<path d="M225.921 147.015C217.092 138.186 205.134 134.498 193.623 135.839C202.117 136.844 210.275 140.533 216.757 147.015C232.068 162.326 232.068 187.136 216.757 202.447C210.275 208.929 202.117 212.617 193.623 213.623C205.134 214.964 217.092 211.276 225.921 202.447C241.232 187.248 241.232 162.326 225.921 147.015Z" fill="#71F6FC"/>
</g>
<rect x="0.5" y="0.5" width="369" height="408" rx="23.5" stroke="#EAEAEA"/>
<defs>
<clipPath id="clip0">
<rect width="230" height="230" fill="white" transform="translate(67 87)"/>
</clipPath>
</defs>
</svg>
