<svg width="70" height="71" viewBox="0 0 70 71" fill="none" xmlns="http://www.w3.org/2000/svg">
<g clip-path="url(#clip0)">
<path d="M35.0155 70.2617C54.3541 70.2617 70.0311 54.5331 70.0311 35.1309C70.0311 15.7286 54.3541 0 35.0155 0C15.677 0 0 15.7286 0 35.1309C0 54.5331 15.677 70.2617 35.0155 70.2617Z" fill="#F9B2B2"/>
<path d="M14.5405 55.5485L32.0949 70.2305C34.0212 70.3552 49.9289 71.1345 61.1451 58.4475C70.7456 47.5997 70.0931 34.6944 69.9067 32.263C64.9666 26.9326 59.9955 21.6022 55.0554 16.2718L42.7829 22.2256L41.2294 20.0436L31.1317 21.5087L29.7025 20.0748L28.2733 20.7917L25.9431 17.2069L14.7269 24.3765C16.7465 27.9301 18.7349 31.4526 20.7545 35.0062C20.6302 36.066 20.4748 37.1259 20.3506 38.1545L14.5405 55.5485Z" fill="#FF5F5F"/>
<path d="M49.898 26.5897H47.0085C47.0085 25.1558 43.4044 25.1558 43.4044 20.7917C43.4044 17.5186 46.6357 14.9937 49.898 14.9937C53.1603 14.9937 56.3915 17.5186 56.3915 20.7917C56.3915 25.1246 52.7875 25.1246 52.7875 26.5897H49.898Z" fill="#FFEB99"/>
<path d="M52.7871 26.5897C53.595 26.5897 54.2164 27.2443 54.2164 28.0236C54.2164 28.8341 53.5639 29.4575 52.7871 29.4575H47.0082C46.2004 29.4575 45.579 28.8029 45.579 28.0236C45.579 27.2132 46.2314 26.5897 47.0082 26.5897H52.7871Z" fill="#57A4FF"/>
<path d="M52.7871 29.4887C53.595 29.4887 54.2164 30.1433 54.2164 30.9226C54.2164 31.7331 53.5639 32.3565 52.7871 32.3565H47.0082C46.2004 32.3565 45.579 31.7019 45.579 30.9226C45.579 30.1121 46.2314 29.4887 47.0082 29.4887H52.7871Z" fill="#57A4FF"/>
<path d="M52.7872 32.3877V33.8216C52.7872 34.6321 52.1347 35.2555 51.358 35.2555H48.4685C47.6607 35.2555 47.0393 34.6009 47.0393 33.8216V32.3877H52.7872Z" fill="#C6C5CA"/>
<path d="M56.3915 20.7917C56.3915 25.1246 52.7874 25.1246 52.7874 26.5897H49.8979C49.8979 25.1558 53.502 25.1558 53.502 20.7917C53.502 17.9862 51.1718 15.773 48.4376 15.1807C48.9037 15.0561 49.4008 15.0249 49.8668 15.0249C53.1602 14.9937 56.3915 17.5186 56.3915 20.7917Z" fill="#FFDE55"/>
<path d="M54.2166 28.0236C54.2166 28.8341 53.5642 29.4575 52.7874 29.4575H49.8979C50.7058 29.4575 51.3272 28.8029 51.3272 28.0236C51.3272 27.2132 50.6747 26.5897 49.8979 26.5897H52.7874C53.5952 26.5897 54.2166 27.2443 54.2166 28.0236Z" fill="#2488FF"/>
<path d="M54.2166 30.9226C54.2166 31.7331 53.5642 32.3565 52.7874 32.3565H49.8979C50.7058 32.3565 51.3272 31.7019 51.3272 30.9226C51.3272 30.1121 50.6747 29.4887 49.8979 29.4887H52.7874C53.5952 29.4887 54.2166 30.1433 54.2166 30.9226Z" fill="#2488FF"/>
<path d="M52.7877 32.3877V33.8216C52.7877 34.6321 52.1352 35.2555 51.3585 35.2555H48.469C49.2768 35.2555 49.8982 34.6009 49.8982 33.8216V32.3877H52.7877Z" fill="#ACABB1"/>
<path d="M42.8139 53.4912L43.4043 55.5485H33.5241C35.6368 54.0523 36.9107 51.6208 36.9107 49.0336H38.3399C39.1477 49.0336 39.7691 48.379 39.7691 47.5997V46.1346C39.7691 45.3241 39.1166 44.7007 38.3399 44.7007H36.9107V41.0847L26.0984 38.1857L21.0341 41.0847V44.7007H19.5738C18.766 44.7007 18.1446 45.3553 18.1446 46.1346V47.5685C18.1446 48.379 18.7971 49.0024 19.5738 49.0024H21.003C21.003 51.5897 22.2769 54.0211 24.3896 55.5173H14.5405L15.1619 53.3353C15.7212 51.4026 16.0008 49.4076 15.9697 47.4126V45.7293C15.9697 38.8091 21.2205 32.8241 28.0869 32.3877C35.2329 31.889 41.4469 37.3129 41.9129 44.5136C41.944 44.7942 41.944 45.1059 41.944 45.3864V47.4438C41.9751 49.5011 42.2547 51.5273 42.8139 53.4912Z" fill="#FFDE55"/>
<path d="M43.4044 55.5485H40.515L39.9246 53.4912C39.4897 51.9638 39.21 50.4052 39.1168 48.8154C39.5518 48.5348 39.8004 48.0984 39.8004 47.5997V46.1346C39.8004 45.6047 39.5207 45.1371 39.0547 44.8877C38.8061 38.4663 33.8971 33.167 27.5278 32.4812C27.7143 32.4501 27.9007 32.4501 28.0871 32.4189C35.2331 31.9201 41.4471 37.3441 41.9131 44.5448C41.9442 44.8254 41.9442 45.1371 41.9442 45.4176V47.475C41.9442 49.5012 42.2238 51.5585 42.783 53.5224L43.4044 55.5485Z" fill="#FFCD00"/>
<path d="M39.7999 46.1346V47.5685C39.7999 48.379 39.1475 49.0024 38.3707 49.0024H36.9415V44.6695H38.3707C39.1475 44.7007 39.7999 45.3241 39.7999 46.1346Z" fill="#FFC477"/>
<path d="M36.9111 41.0535V49.0336C36.9111 53.4288 33.3692 57.0136 28.9573 57.0136C24.5454 57.0136 21.0034 53.46 21.0034 49.0336V41.0535L26.0678 38.1545L36.9111 41.0535Z" fill="#FFDAAA"/>
<path d="M36.911 41.0535V49.0336C36.911 53.4288 33.369 56.9824 28.9571 57.0136C28.46 57.0136 27.994 56.9824 27.5279 56.8889C28.6464 56.7019 29.7028 56.2343 30.6349 55.5797C32.7476 54.0834 34.0215 51.652 34.0215 49.0647V41.0847L25.1666 38.6845L26.0987 38.1545L36.911 41.0535Z" fill="#FFC477"/>
<path d="M26.0677 22.2257L24.6385 22.5686L25.3842 23.8466L23.3336 25.904L22.0597 25.1558L21.749 26.5897H18.8595L18.5178 25.1558L17.2439 25.904L15.1933 23.8466L15.939 22.5686L14.5098 22.2257V19.3267L15.939 18.9838L15.1933 17.7057L17.2439 15.6484L18.5178 16.3965L18.8595 14.9626H21.749L22.0908 16.3965L23.3646 15.6484L25.4152 17.7057L24.6695 18.9838L26.0988 19.3267V22.2257H26.0677Z" fill="#FFEB99"/>
<path d="M20.3197 22.9738C21.5208 22.9738 22.4945 21.9968 22.4945 20.7917C22.4945 19.5866 21.5208 18.6097 20.3197 18.6097C19.1185 18.6097 18.1448 19.5866 18.1448 20.7917C18.1448 21.9968 19.1185 22.9738 20.3197 22.9738Z" fill="#C6C5CA"/>
<path d="M21.0343 44.7007V49.0336H19.574C18.7662 49.0336 18.1448 48.379 18.1448 47.5997V46.1346C18.1448 45.3241 18.7972 44.7007 19.574 44.7007H21.0343Z" fill="#FFC477"/>
<path d="M44.0876 55.3303L43.4973 53.273C42.9381 51.3715 42.6584 49.4076 42.6895 47.4438V45.3864C42.6895 37.7805 36.5688 31.6396 28.9878 31.6396C28.6771 31.6396 28.3664 31.6396 28.0557 31.6708C20.7543 32.263 15.1928 38.4039 15.255 45.7293V47.4126C15.255 49.3453 14.9754 51.278 14.4472 53.1483L13.8258 55.3303C13.7636 55.5485 13.7947 55.7667 13.9501 55.9538C14.0743 56.1408 14.2918 56.2343 14.5404 56.2343H24.2031C27.0925 58.167 30.852 58.167 33.7725 56.2343H43.4352C43.6527 56.2343 43.8702 56.1408 44.0255 55.9538C44.1187 55.7979 44.1498 55.5485 44.0876 55.3303ZM28.9567 56.2655C24.9798 56.2655 21.7486 53.0236 21.7486 49.0336V41.4899L26.1915 38.9338L36.196 41.6146V49.0336C36.1649 53.0236 32.9647 56.2655 28.9567 56.2655ZM35.4192 54.8316C36.6931 53.4288 37.4387 51.652 37.5941 49.7505H38.3398C39.5204 49.7505 40.5146 48.7842 40.5146 47.5685V46.1346C40.5146 44.95 39.5515 43.9525 38.3398 43.9525H37.6252V41.0535C37.6252 40.7106 37.4077 40.4301 37.097 40.3366L26.2847 37.4376C26.0983 37.4064 25.9119 37.4064 25.7255 37.4999L20.6611 40.3989C20.4436 40.5236 20.2883 40.773 20.2883 41.0224V43.9214H19.5737C18.393 43.9214 17.3988 44.8877 17.3988 46.1034V47.5373C17.3988 48.7218 18.362 49.7194 19.5737 49.7194H20.3193C20.4747 51.5897 21.2514 53.3976 22.4942 54.8004H15.4725L15.8453 53.5223C16.4046 51.5273 16.6842 49.47 16.6842 47.3814V45.6982C16.591 39.1209 21.5932 33.6034 28.1178 33.0735C34.891 32.6059 40.7321 37.7493 41.1671 44.5448C41.1982 44.8253 41.1982 45.1059 41.1982 45.3553V47.4126C41.1982 49.5323 41.5089 51.6208 42.0681 53.647L42.3788 54.7692L35.4192 54.8316ZM37.6252 48.3166V45.4176H38.3398C38.7437 45.4176 39.0544 45.7293 39.0544 46.1346V47.5685C39.0544 47.9737 38.7437 48.2854 38.3398 48.2854H37.6252V48.3166ZM20.3193 45.4176V48.3166H19.5737C19.1698 48.3166 18.8591 48.0049 18.8591 47.5997V46.1346C18.8591 45.7293 19.1698 45.4176 19.5737 45.4176H20.3193Z" fill="black"/>
<path d="M57.1061 20.7917C57.1061 16.8952 53.3777 14.2768 49.8979 14.2768C46.4181 14.2768 42.6898 16.8952 42.6898 20.7917C42.5965 22.8803 43.684 24.8753 45.5171 25.904C45.6414 25.9975 45.7967 26.091 45.921 26.1845C44.8957 26.7768 44.5539 28.086 45.1443 29.1147C45.2064 29.2394 45.2996 29.364 45.4239 29.4887C45.051 29.894 44.8646 30.3927 44.8646 30.9226C44.8646 31.8266 45.455 32.6683 46.2938 32.98V33.8216C46.2938 35.0062 47.257 36.0037 48.4687 36.0037H51.3582C52.5388 36.0037 53.5331 35.0374 53.5331 33.8216V32.98C54.403 32.6683 54.9623 31.8578 54.9623 30.9226C54.9623 30.3927 54.7448 29.8628 54.403 29.4887C55.2108 28.6159 55.1487 27.2755 54.2787 26.4651C54.1545 26.3715 54.0302 26.278 53.9059 26.1845C54.0302 26.091 54.1855 25.9663 54.3098 25.904C56.1119 24.8753 57.1993 22.8803 57.1061 20.7917ZM52.0728 33.8216C52.0728 34.2269 51.7621 34.5386 51.3582 34.5386H48.4687C48.0648 34.5386 47.7541 34.2269 47.7541 33.8216V33.1047H52.0728V33.8216ZM52.7874 31.6396H47.0084C46.6045 31.6396 46.2938 31.3279 46.2938 30.9226C46.2938 30.5174 46.6045 30.2057 47.0084 30.2057H52.7874C53.1913 30.2057 53.502 30.5174 53.502 30.9226C53.502 31.3279 53.1913 31.6396 52.7874 31.6396ZM52.7874 28.7406H47.0084C46.6045 28.7406 46.2938 28.4289 46.2938 28.0237C46.2938 27.6184 46.6045 27.3067 47.0084 27.3067H52.7874C53.1913 27.3067 53.502 27.6184 53.502 28.0237C53.502 28.4289 53.1913 28.7406 52.7874 28.7406ZM53.4709 24.6882C52.9738 24.9688 52.5699 25.374 52.2592 25.8416H50.6436V21.5087H52.0728V20.0748H47.7541V21.5087H49.1833V25.8728H47.5677C47.257 25.4052 46.822 25 46.356 24.7194C45.3307 24.0025 44.15 23.192 44.15 20.8229C44.15 17.8304 47.1949 15.7419 49.929 15.7419C52.6631 15.7419 55.708 17.8304 55.708 20.8229C55.6769 23.1608 54.4962 23.9713 53.4709 24.6882Z" fill="black"/>
<path d="M49.1831 37.4376H50.6123V38.8715H49.1831V37.4376Z" fill="black"/>
<path d="M50.6127 40.3365V46.8515C50.6127 47.2567 50.302 47.5685 49.8981 47.5685H44.1191V46.1345H49.1835V40.3365H50.6127Z" fill="black"/>
<path d="M20.3194 23.6907C21.904 23.6907 23.2089 22.3815 23.2089 20.7917C23.2089 19.2019 21.904 17.8927 20.3194 17.8927C18.7349 17.8927 17.4299 19.2019 17.4299 20.7917C17.4299 22.3815 18.7038 23.6907 20.3194 23.6907ZM20.3194 19.3578C21.1272 19.3578 21.7486 20.0124 21.7486 20.7917C21.7486 21.571 21.0962 22.2256 20.3194 22.2256C19.5116 22.2256 18.8902 21.571 18.8902 20.7917C18.8902 20.0124 19.5116 19.3578 20.3194 19.3578Z" fill="black"/>
<path d="M26.2539 18.6409L25.7568 18.5162L26.0053 18.0798C26.1607 17.7992 26.1296 17.4252 25.9121 17.2069L23.8615 15.1496C23.613 14.9314 23.2712 14.869 22.9916 15.0561L22.5566 15.3055L22.4323 14.8067C22.3391 14.495 22.0595 14.2456 21.7177 14.2456H18.8282C18.4864 14.2456 18.2068 14.4638 18.1136 14.8067L17.9893 15.3055L17.5544 15.0561C17.2747 14.9002 16.9019 14.9314 16.6844 15.1496L14.6338 17.2069C14.3853 17.4563 14.3542 17.7992 14.5406 18.0798L14.7892 18.5162L14.292 18.6409C13.9813 18.7344 13.7328 19.0149 13.7328 19.3578V22.2568C13.7328 22.5997 13.9503 22.8802 14.292 22.9738L14.7892 23.0985L14.5406 23.5349C14.3853 23.8154 14.4163 24.1895 14.6338 24.4077L16.6844 26.465C16.933 26.6832 17.2747 26.7456 17.5544 26.5585L17.9893 26.3092L18.1136 26.8079C18.2068 27.1196 18.4864 27.369 18.8282 27.369H21.7488C22.0905 27.369 22.3702 27.1508 22.4634 26.8079L22.5876 26.3092L23.0226 26.5585C23.3023 26.7144 23.6751 26.6832 23.8926 26.465L25.9432 24.4077C26.1917 24.1583 26.2228 23.8154 26.0364 23.5349L25.7568 23.0673L26.2539 22.9426C26.5646 22.8491 26.8131 22.5685 26.8131 22.2256V19.3266C26.8131 19.0149 26.5646 18.7344 26.2539 18.6409ZM25.3529 21.6645L24.4829 21.8827C24.2654 21.9451 24.079 22.101 23.9858 22.3192C23.8926 22.5374 23.9236 22.7867 24.0479 22.9738L24.514 23.7531L23.2712 24.9999L22.4944 24.5324C22.308 24.4077 22.0595 24.4077 21.842 24.5012C21.6245 24.5947 21.4691 24.7817 21.407 24.9999L21.1895 25.8728H19.4185L19.2011 24.9999C19.1389 24.7817 18.9836 24.5947 18.7661 24.5012C18.5486 24.4077 18.3 24.4389 18.1136 24.5324L17.3369 24.9999L16.0941 23.7531L16.5601 22.9738C16.6844 22.7867 16.6844 22.5374 16.6223 22.3192C16.5291 22.101 16.3426 21.9451 16.1252 21.8827L15.2552 21.6645V19.8877L16.1252 19.6695C16.3426 19.6072 16.5291 19.4513 16.6223 19.2331C16.7155 19.0149 16.6844 18.7655 16.5601 18.5785L16.0941 17.7992L17.3369 16.5523L18.1136 17.0199C18.3 17.1446 18.5486 17.1446 18.7661 17.0823C18.9836 16.9887 19.1389 16.8017 19.2011 16.5835L19.4185 15.7107H21.1895L21.407 16.5835C21.4691 16.8017 21.6245 16.9887 21.842 17.0823C22.0595 17.1758 22.308 17.1446 22.4944 17.0199L23.2712 16.5523L24.514 17.7992L24.0479 18.5785C23.9236 18.7655 23.9236 19.0149 23.9858 19.2331C24.079 19.4513 24.2654 19.6072 24.4829 19.6695L25.3529 19.8877V21.6645Z" fill="black"/>
<path d="M28.2426 20.0748H29.6718V21.5087H28.2426V20.0748Z" fill="black"/>
<path d="M31.132 20.0748H41.2296V21.5087H31.132V20.0748Z" fill="black"/>
<path d="M19.5737 28.7406H21.0029V33.0735H19.5737V28.7406Z" fill="black"/>
</g>
<defs>
<clipPath id="clip0">
<rect width="70" height="70.2929" fill="white"/>
</clipPath>
</defs>
</svg>
