<svg width="720" height="1020" viewBox="0 0 720 1020" fill="none" xmlns="http://www.w3.org/2000/svg">
<g id="Group 274">
<mask id="mask0" mask-type="alpha" maskUnits="userSpaceOnUse" x="0" y="0" width="720" height="1020">
<rect id="Rectangle 3" width="720" height="1020" fill="#312FAD"/>
</mask>
<g mask="url(#mask0)">
<g id="Group 273">
<rect id="Rectangle 6" y="-1" width="720" height="1023" fill="#302EA7"/>
</g>
<ellipse id="Ellipse 3" cx="-9" cy="239" rx="80" ry="81" fill="#5645BA"/>
<path id="Rectangle 13" d="M524 918.99C524 864.866 567.876 820 622 820V820C676.124 820 720 863.876 720 918V1020H624C568.772 1020 524 974.218 524 918.99V918.99Z" fill="#FFB5B5"/>
<path id="Rectangle 9" d="M221 340C221 245.007 298.007 168 393 168V168C487.993 168 565 245.007 565 340V531H221V340Z" fill="#F0513E"/>
<path id="Rectangle 11" d="M726 465.5C726 509.959 689.959 546 645.5 546V546C601.041 546 565 509.959 565 465.5L565 387L726 387L726 465.5Z" fill="#6B5ACC"/>
<path id="Rectangle 10" d="M565 307C565 265.579 598.579 232 640 232H720V312C720 353.421 686.421 387 645 387H565V307Z" fill="#21C1F3"/>
<rect id="Rectangle 14" x="107" y="426" width="114" height="117" fill="#302EA7"/>
<path id="Rectangle 61" d="M-3 812C-3 701.543 86.5431 612 197 612H207C317.457 612 407 701.543 407 812V820C407 930.457 317.457 1020 207 1020H-3V812Z" fill="#F4F4F4"/>
<path id="Rectangle 12" d="M407 531H563.5C649.933 531 720 601.067 720 687.5V820H407V531Z" fill="#FEC144"/>
</g>
<g id="Girl" clip-path="url(#clip0)">
<g id="Group">
<g id="Group_2">
<path id="Vector" d="M481.731 769.215C482.808 759.932 487.582 753.621 496.23 749.578C503.238 746.303 511.114 745.536 518.798 744.561C535.901 742.372 552.248 740.199 569.512 740.87C583.32 741.414 591.839 753.125 598.301 764.677C602.384 771.963 601.242 775.383 596.115 781.47C591.389 787.094 585.65 791.872 579.237 795.499C566.538 802.673 547.04 800.899 533.056 799.349C519.859 797.879 508.221 797.656 496.455 791.552C488.884 787.622 480.686 778.259 481.731 769.215Z" fill="#3D3342"/>
<g id="Group_3">
<path id="Vector_2" d="M515.872 792.383C515.872 792.383 513.638 790.242 508.976 790.593C505.954 790.817 497.628 793.597 493.545 793.949C489.478 794.3 485.154 793.837 483.161 797.528C479.802 803.791 482.052 808.888 488.803 809.016C492.468 809.08 495.233 806.395 501.052 806.38C506.694 806.364 515.213 803.615 517.335 799.397" fill="#4C4051"/>
<path id="Vector_3" d="M523.475 788.852C523.475 788.852 519.103 790.593 516.146 791.057C513.172 791.52 506.405 791.456 503.576 793.661C500.505 796.042 502.29 801.474 504.508 802.577C508.076 804.35 510.68 802.976 516.612 800.436C522.543 797.895 529.825 797.895 529.825 797.895" fill="#FFD1AB"/>
<path id="Vector_4" d="M501.711 794.556C501.711 794.556 503.849 793.07 504.733 794.348C505.633 795.626 506.63 801.314 506.324 802.241C505.778 803.903 502.402 803.663 502.402 803.663L498.946 796.681L501.711 794.556Z" fill="#4C4051"/>
</g>
<path id="Vector_5" d="M610.34 779.473C616.111 776.677 621.914 773.322 624.196 766.611C626.479 759.9 623.891 748.859 616.738 742.724C608.026 735.23 599.104 739.161 592.61 743.379C579.285 752.007 571.537 760.875 555.575 769.631C550.85 772.219 524.311 786.072 524.311 786.072C523.813 787.893 526.883 800.787 529.214 800.771C554.595 800.612 589.685 789.475 610.34 779.473Z" fill="#4C4051"/>
<g id="Group_4">
<path id="Vector_6" d="M576.392 790.753C576.392 790.753 578.69 788.564 583.448 788.916C586.55 789.14 595.07 792 599.249 792.351C603.428 792.703 607.624 792.239 609.971 795.307C614.423 801.075 609.054 807.163 602.142 807.274C598.381 807.338 597.513 805.085 591.55 805.069C585.763 805.053 577.035 802.241 574.865 797.911" fill="#4C4051"/>
<path id="Vector_7" d="M568.596 787.142C568.596 787.142 573.064 788.916 576.102 789.395C579.14 789.875 586.084 789.811 588.978 792.063C592.112 794.508 590.296 800.068 588.029 801.187C584.364 803.008 581.712 801.602 575.62 798.998C569.544 796.393 562.086 796.393 562.086 796.393" fill="#FFD1AB"/>
<path id="Vector_8" d="M590.907 792.99C590.907 792.99 588.72 791.472 587.804 792.782C586.888 794.093 585.859 799.925 586.181 800.867C586.743 802.561 590.199 802.337 590.199 802.337L593.736 795.179L590.907 792.99Z" fill="#4C4051"/>
</g>
<path id="Vector_9" d="M489.623 785.065C482.775 782.493 475.767 779.361 471.733 772.954C467.698 766.547 467.875 755.858 474.063 749.802C481.618 742.42 492.082 746.031 500.055 749.962C516.371 758.015 534.502 767.649 551.396 774.472C557.103 776.773 576.07 785.752 576.07 785.752C577.035 787.494 574.302 800.548 571.891 799.956" fill="#594A5F"/>
</g>
<g id="Group_5">
<path id="Vector_10" d="M492.95 617.202C492.5 618.433 489.173 611.722 486.923 612.984C486.601 613.16 485.01 615.525 484.656 615.812C483.949 616.387 482.438 615.908 481.666 617.873C479.946 622.267 480.011 630.943 487.228 634.666C487.34 634.89 493.883 662.899 497.885 676.768L508.976 666.446C505.938 658.808 499.589 645.435 495.12 633.292C493.883 629.745 493.899 627.923 494.686 625.495C495.554 623.098 497.483 617.41 497.644 613.943C497.692 612.76 494.992 602.71 493.818 603.813C493.143 604.452 493.175 608.111 493.947 612.185C494.333 614.262 493.368 616.323 492.95 617.202Z" fill="#FFE1BD"/>
<path id="Vector_11" d="M599.876 693.448C604.618 702.172 610.324 710.8 611.465 720.659C611.883 724.301 611.498 728.408 608.861 730.98C606.241 733.537 598.397 733.776 594.732 733.968C589.604 718.086 588.302 702.3 583.159 686.418C580.619 678.541 578.079 670.68 575.54 662.803C573.627 656.875 568.338 647.145 568.981 641.105C576.343 641.217 582.628 657.85 585.313 663.25C590.264 673.252 594.539 683.606 599.876 693.448Z" fill="#6B5ACC"/>
<path id="Vector_12" d="M518.958 743.283C522.334 745.28 525.71 747.262 529.375 748.7C534.55 750.713 540.128 751.48 545.658 751.911C559.948 753.014 574.447 751.831 588.367 748.396C594.298 746.942 597.047 744.05 597.175 738.761C597.191 737.355 597.031 735.79 596.709 734.016C595.102 725.356 596.581 717.351 592.916 709.362C588.479 699.696 587.402 688.144 584.348 677.982C581.519 668.555 578.658 659.096 575.491 649.781C573.932 645.195 571.087 640.865 566.763 638.453C561.41 635.481 555.238 636.727 549.371 635.8C543.713 634.906 534.856 633.004 527.928 640.003C524.858 643.118 529.037 642.335 528.04 646.122C524.729 658.681 522.141 671.399 520.035 684.197C519.039 690.333 514.538 740.695 518.958 743.283Z" fill="#6B5ACC"/>
<path id="Vector_13" d="M564.593 742.708L597.095 739.992C597.111 738.586 597.031 735.774 596.709 734C596.709 734 578.787 735.342 570.942 734.671C553.679 733.201 564.593 742.708 564.593 742.708Z" fill="#5649A5"/>
<path id="Vector_14" d="M512.609 663.602C509.555 657.227 506.131 651.027 502.37 645.052C501.229 643.23 498.866 637.814 496.808 637.111C494.445 636.312 488.884 638.916 486.649 639.763C490.009 654.942 494.397 669.897 499.798 684.485C500.586 686.61 501.438 688.799 503.077 690.381C506.453 693.64 512.207 693.161 516.129 690.572C520.051 687.984 522.575 683.83 524.97 679.803C529.166 672.757 533.972 665.295 536.045 657.275C537.331 652.305 541.655 643.949 537.042 639.651C532.445 635.369 528.298 638.964 525.404 642.958C523.041 646.234 520.839 649.653 518.717 653.104C517.914 654.383 512.03 662.371 512.609 663.602Z" fill="#6B5ACC"/>
<g id="Group_6">
<path id="Vector_15" d="M530.484 590.519C525.87 597.965 529.407 608.399 524.745 615.828C522.881 618.8 519.81 621.085 518.862 624.456C518.074 627.284 519.087 630.544 521.37 632.413C523.652 634.283 527.06 634.682 529.712 633.372C530.291 633.084 530.821 632.733 531.448 632.573C533.666 631.998 535.595 633.979 537.46 635.321C539.742 636.951 542.732 637.75 545.417 636.935C548.857 635.896 551.059 632.525 552.296 629.17C555.736 619.759 553.759 609.309 551.075 599.675C549.741 594.849 547.715 589.497 543.038 587.627" fill="#2C1E56"/>
</g>
<path id="Vector_16" d="M547.924 624.76C547.924 624.76 547.876 633.452 546.526 633.995C543.825 635.05 540.835 635.577 540.835 635.577L540.257 653.568L564.48 650.596L581.326 641.856C581.326 641.856 564.239 635.721 564.127 633.995C564.014 632.285 565.381 622.699 565.381 622.699" fill="#FFE1BD"/>
<path id="Vector_17" d="M531.432 588.794C531.432 588.794 529.6 605.555 532.236 614.438C534.197 621.021 542.796 627.332 550.126 627.46C570.315 628.003 574.672 600.841 574.591 599.531C574.527 598.205 545.175 585.982 545.175 585.982L531.432 588.794Z" fill="#FFE1BD"/>
<path id="Vector_18" d="M521.096 671.415C521.096 671.415 567.181 695.094 571.183 694.104C575.186 693.113 611.465 720.659 611.465 720.659C611.465 720.659 607.72 652.098 585.055 641.521C573.514 636.152 579.333 635.912 569.078 635.817L564.545 635.465C559.433 641.393 548.872 650.165 544.565 645.978C541.318 642.831 544.163 637.334 545.095 634.474C538.569 635.337 531.705 636.791 527.944 639.987C517.431 648.95 521.096 671.415 521.096 671.415Z" fill="#6B5ACC"/>
<path id="Vector_19" d="M577.678 663.602C577.678 663.602 590.408 713.229 588.656 714.236C586.92 715.258 562.359 718.741 562.359 718.741L562.053 717.383L585.361 712.686C585.377 712.702 576.134 674.227 577.678 663.602Z" fill="#594AAB"/>
<g id="Group_7">
<path id="Vector_20" d="M584.011 640.098C584.461 639.875 584.911 639.635 585.345 639.379C587.692 638.069 589.862 636.679 590.906 634.091C592.417 630.368 593.237 624.6 591.373 620.909C590.119 618.401 587.659 616.723 586.004 614.454C583.721 611.306 583.127 607.264 583.03 603.397C582.934 599.531 583.271 595.616 582.564 591.798C581.342 585.295 579.655 579.079 574.752 574.765C566.892 567.879 550.882 563.485 541.928 570.691C540.305 572.001 539.951 573.088 537.797 573.231C534.904 573.439 533.023 573.743 530.387 575.165C527.462 576.746 523.925 578.983 524.215 582.738C524.424 585.343 527.285 589.529 529.487 590.823C530.403 591.366 531.496 591.542 532.573 591.59C535.981 591.75 538.874 589.609 542.218 590.056C543.857 590.28 545.368 591.19 546.365 592.485C547.538 594.002 547.313 596.064 548.68 597.486C550.882 599.77 554.402 599.675 557.038 601.193C557.472 601.448 557.922 601.736 558.163 602.167C558.404 602.599 558.421 603.11 558.421 603.605C558.437 605.011 558.453 606.417 558.469 607.823C559.819 607.28 559.996 605.395 561.121 604.484C562.198 603.605 563.918 603.893 564.963 604.835C565.991 605.778 566.474 607.168 566.715 608.542C567.004 610.188 566.377 611.914 565.831 613.543C564.882 616.387 562.343 618.896 560.398 616.947C558.903 619.024 560.382 622.587 560.366 624.983C560.349 626.885 560.221 630.64 558.404 631.822C556.733 632.924 554.161 631.982 553.984 634.938C553.823 637.638 556.476 639.811 559.16 640.21C561.844 640.61 564.529 639.747 567.165 639.044C569.801 638.373 572.662 637.846 575.17 638.9C576.681 639.539 577.983 640.706 579.606 641.025C581.117 641.313 582.612 640.802 584.011 640.098Z" fill="#2C1E56"/>
</g>
<path id="Vector_21" d="M533.361 657.099C533.361 657.099 526.079 669.945 526.063 673.956C526.047 677.966 528.458 686.115 528.458 686.115L526.497 685.987C526.497 685.987 523.202 677.966 523.025 675.601C522.848 673.237 523.154 670.233 525.581 665.839C528.008 661.461 532.509 655.038 533.988 654.383C535.466 653.728 533.361 657.099 533.361 657.099Z" fill="#594AAB"/>
</g>
<path id="Vector_22" d="M600.696 740.008L496.005 739.592L568.724 755.65L600.696 740.008Z" fill="#00E3FF"/>
<path id="Vector_23" d="M568.724 758.286L484.029 751.799L469 686.067L554.209 693.209L568.724 758.286Z" fill="#21C1F3"/>
<path id="Vector_24" d="M568.724 758.286L600.696 743.938V740.008L567.969 754.867L568.724 758.286Z" fill="#00E3FF"/>
<path id="Vector_25" d="M554.209 693.209L556.427 691.787L570.106 753.876L567.969 754.867L554.209 693.209Z" fill="#00E3FF"/>
<path id="Vector_26" d="M556.427 691.787L471.7 684.357L469 686.067L554.209 693.209L556.427 691.787Z" fill="#75C1C9"/>
<path id="Vector_27" d="M509.121 721.154C508.703 724.27 511.757 727.257 515.937 727.817C520.132 728.376 523.861 726.315 524.279 723.183C524.697 720.067 521.643 717.08 517.464 716.52C513.284 715.977 509.539 718.038 509.121 721.154Z" fill="#A7E8F2"/>
</g>
</g>
<g id="Rocket" filter="url(#filter0_d)">
<path id="Vector_28" d="M399.844 356.437L383.333 332.919L366.823 356.437C371.623 409.369 368.953 462.713 358.891 514.901H407.776C397.731 462.711 395.061 409.369 399.844 356.437Z" fill="white"/>
<path id="Vector_29" d="M339.933 284.533L305.196 323.27C303.577 325.082 302.421 327.26 301.828 329.617C301.235 331.974 301.223 334.439 301.793 336.801L316.419 397.509C316.7 398.673 317.425 399.681 318.44 400.317C319.454 400.953 320.677 401.167 321.847 400.913V400.913C322.77 400.709 323.608 400.224 324.243 399.523C324.878 398.822 325.279 397.941 325.391 397.003C326.797 385.187 333.182 343.975 355.628 332.132L339.933 284.533Z" fill="#3C6ADE"/>
<path id="Vector_30" d="M427.436 284.533L462.173 323.27C463.797 325.08 464.955 327.257 465.548 329.615C466.141 331.973 466.151 334.439 465.577 336.801L450.979 397.453C450.697 398.617 449.972 399.624 448.958 400.26C447.943 400.897 446.72 401.11 445.55 400.856C444.622 400.658 443.778 400.175 443.138 399.474C442.497 398.773 442.092 397.889 441.978 396.946C440.6 385.131 434.215 343.919 411.77 332.075L427.436 284.533Z" fill="#3C6ADE"/>
<path id="Vector_31" d="M334.955 262.929C334.955 269.033 336.192 310.105 351.24 341.893C351.815 343.128 352.727 344.175 353.872 344.912C355.017 345.649 356.348 346.046 357.709 346.057H407.776C409.137 346.046 410.468 345.649 411.613 344.912C412.758 344.175 413.67 343.128 414.245 341.893C429.124 310.443 430.39 269.962 430.502 263.126C430.502 262.507 430.502 261.888 430.502 261.241C429.309 236.96 424.873 212.947 417.311 189.844H348.202C340.623 212.991 336.186 237.052 335.011 261.382C334.983 261.916 334.955 262.422 334.955 262.929Z" fill="#D3E8FD"/>
<path id="Vector_32" d="M373.123 140.782C362.192 155.687 353.747 172.265 348.118 189.872H417.282C411.653 172.265 403.208 155.687 392.277 140.782C391.161 139.297 389.714 138.092 388.052 137.262C386.39 136.432 384.558 136 382.7 136C380.842 136 379.01 136.432 377.348 137.262C375.686 138.092 374.239 139.297 373.123 140.782V140.782Z" fill="#3C6ADE"/>
<path id="Vector_33" d="M382.742 269.033C396.894 269.033 408.366 257.559 408.366 243.405C408.366 229.252 396.894 217.778 382.742 217.778C368.591 217.778 357.118 229.252 357.118 243.405C357.118 257.559 368.591 269.033 382.742 269.033Z" fill="#3C6ADE"/>
<path id="Vector_34" d="M382.236 262.647C392.862 262.647 401.475 254.032 401.475 243.405C401.475 232.778 392.862 224.164 382.236 224.164C371.611 224.164 362.997 232.778 362.997 243.405C362.997 254.032 371.611 262.647 382.236 262.647Z" fill="#EAC140"/>
<path id="Vector_35" d="M363.869 249.003C367.359 249.36 370.877 248.68 373.983 247.049C377.09 245.418 379.647 242.908 381.336 239.833C382.607 237.446 383.348 234.813 383.508 232.114C383.668 229.414 383.244 226.712 382.264 224.192C378.635 224.244 375.09 225.299 372.023 227.241C368.955 229.182 366.484 231.933 364.882 235.191C362.738 239.482 362.374 244.446 363.869 249.003V249.003Z" fill="white"/>
<path id="Vector_36" d="M355.628 346.057H410.054V348.56C410.054 350.94 409.108 353.223 407.426 354.906C405.743 356.589 403.461 357.534 401.081 357.534H364.516C362.136 357.534 359.854 356.589 358.171 354.906C356.489 353.223 355.543 350.94 355.543 348.56V346.057H355.628Z" fill="#578CEA"/>
<path id="Vector_37" d="M387.327 406.708H378.045L374.951 293.001H390.534L387.327 406.708Z" fill="#3C6ADE"/>
</g>
<g id="Mask Group">
<mask id="mask1" mask-type="alpha" maskUnits="userSpaceOnUse" x="221" y="168" width="344" height="363">
<path id="Rectangle 62" d="M221 340C221 245.007 298.007 168 393 168V168C487.993 168 565 245.007 565 340V531H221V340Z" fill="#F0513E"/>
</mask>
<g mask="url(#mask1)">
<g id="Group 262" filter="url(#filter1_d)">
<path id="Vector_38" d="M345.3 445C334.678 444.991 324.253 447.982 315.139 453.651C306.025 459.321 298.564 467.457 293.554 477.191C289.586 474.897 285.195 473.502 280.671 473.098C276.147 472.695 271.591 473.291 267.305 474.849C263.019 476.407 259.098 478.89 255.802 482.136C252.506 485.381 249.909 489.316 248.181 493.68C246.431 493.288 244.645 493.093 242.855 493.101C238.464 493.092 234.143 494.248 230.302 496.459C226.461 498.67 223.226 501.863 220.904 505.736C218.581 509.609 217.249 514.034 217.032 518.592C216.814 523.15 217.72 527.69 219.663 531.782C221.605 535.875 224.521 539.384 228.133 541.979C231.745 544.574 235.935 546.168 240.305 546.61C244.676 547.052 249.083 546.328 253.109 544.506C257.135 542.684 260.647 539.825 263.313 536.199C268.067 538.728 273.354 539.982 278.694 539.849C284.033 539.715 289.256 538.198 293.888 535.435C298.884 544.859 306.19 552.742 315.064 558.284C323.939 563.827 334.066 566.831 344.419 566.993C354.771 567.155 364.981 564.468 374.012 559.205C383.042 553.943 390.573 546.291 395.839 537.028C401.106 527.764 403.921 517.217 403.998 506.458C404.076 495.698 401.414 485.109 396.282 475.764C391.15 466.419 383.731 458.651 374.777 453.248C365.823 447.845 355.654 445 345.3 445V445Z" fill="white"/>
<path id="Vector_39" d="M442.309 445C453.048 444.991 463.588 447.958 472.802 453.584C482.017 459.209 489.56 467.282 494.625 476.939C498.637 474.663 503.076 473.279 507.65 472.879C512.224 472.478 516.83 473.07 521.163 474.616C525.497 476.161 529.46 478.625 532.793 481.845C536.125 485.066 538.751 488.969 540.498 493.299C542.267 492.909 544.073 492.716 545.883 492.724C550.321 492.72 554.688 493.87 558.569 496.066C562.45 498.263 565.717 501.433 568.062 505.276C570.407 509.12 571.752 513.51 571.969 518.031C572.186 522.552 571.268 527.055 569.303 531.114C567.338 535.173 564.39 538.653 560.738 541.226C557.085 543.798 552.85 545.378 548.432 545.816C544.014 546.254 539.56 545.535 535.491 543.727C531.421 541.919 527.871 539.083 525.177 535.486C520.37 537.995 515.025 539.239 509.626 539.107C504.228 538.975 498.948 537.469 494.265 534.728C489.211 544.069 481.824 551.881 472.855 557.372C463.885 562.863 453.651 565.838 443.19 565.994C432.73 566.149 422.415 563.482 413.292 558.26C404.168 553.039 396.561 545.45 391.242 536.263C385.922 527.076 383.079 516.618 383.002 505.949C382.924 495.281 385.614 484.781 390.799 475.514C395.984 466.248 403.48 458.544 412.526 453.185C421.572 447.827 431.847 445.003 442.309 445V445Z" fill="white"/>
</g>
</g>
</g>
<g id="Like button">
<path id="Vector_40" d="M628.999 343.267C642.781 343.267 656.748 343.7 669.356 342.835C673.373 342.835 676.834 336.221 672.014 334.181C674.167 333.419 675.954 331.874 677.02 329.854C677.239 329.319 677.348 328.746 677.342 328.168C677.336 327.59 677.214 327.019 676.984 326.489C676.754 325.959 676.419 325.48 676.001 325.081C675.582 324.683 675.088 324.372 674.548 324.167C679.368 325.342 681.222 317.986 677.514 315.328C679.553 313.685 680.971 311.396 681.531 308.838C681.744 307.578 681.56 306.284 681.007 305.133C680.454 303.981 679.557 303.03 678.441 302.409C676.889 301.721 675.191 301.423 673.497 301.544H656.316C658.551 292.656 657.656 283.27 653.782 274.964C652.422 272.615 648.714 269.772 645.809 271.565C642.905 273.357 643.832 277.746 643.955 280.218C644.146 285.818 642.787 291.361 640.028 296.236C637.269 301.112 633.217 305.13 628.319 307.849C628.319 307.849 628.999 331.214 628.999 343.267Z" fill="#FDFDFD"/>
<path id="Vector_41" d="M623.869 307.478H603.041V343.268H623.869V307.478Z" fill="#FDFDFD"/>
</g>
<g id="heart">
<path id="Vector_42" d="M669 965H581.074C579.882 965 578.702 964.762 577.601 964.3C576.501 963.839 575.5 963.162 574.658 962.308C573.815 961.455 573.147 960.442 572.691 959.326C572.235 958.211 572 957.016 572 955.809V875.191C572 873.984 572.235 872.788 572.691 871.673C573.147 870.558 573.815 869.545 574.658 868.692C575.5 867.838 576.501 867.161 577.601 866.7C578.702 866.238 579.882 866 581.074 866H659.926C662.333 866 664.641 866.968 666.342 868.692C668.044 870.415 669 872.753 669 875.191V965V965Z" fill="#FF9E9E"/>
<path id="Vector_43" d="M669 950V985L641 950H669Z" fill="#FF9E9E"/>
<path id="heart_2" d="M641.359 902.759C640.175 901.567 638.769 900.622 637.221 899.977C635.673 899.332 634.014 899 632.338 899C630.662 899 629.003 899.332 627.455 899.977C625.907 900.622 624.5 901.567 623.316 902.759L620.075 906.125L616.726 902.813C614.319 900.423 611.066 899.092 607.682 899.112C604.298 899.133 601.061 900.503 598.683 902.922C596.305 905.341 594.98 908.61 595 912.01C595.02 915.41 596.384 918.663 598.791 921.053L611.216 933.321C613.125 935.186 615.557 936.417 618.184 936.85C620.194 937.162 622.249 936.985 624.176 936.334C626.103 935.682 627.846 934.574 629.259 933.104L641.467 920.619C643.754 918.207 645.02 914.998 645 911.667C644.98 908.336 643.675 905.143 641.359 902.759V902.759Z" fill="white"/>
</g>
<path id="Rectangle 125" d="M287 531H347.5C380.361 531 407 557.639 407 590.5V593.5C407 626.361 379.861 653 347 653V653C314.139 653 287 626.361 287 593.5V531Z" fill="#5645BA"/>
<ellipse id="Ellipse 18" cx="110.5" cy="420" rx="110.5" ry="111" fill="#FEC144"/>
<path id="Rectangle 127" d="M0 571.5C0 549.132 18.1325 531 40.5 531H221V571.5C221 593.868 202.868 612 180.5 612H40.5C18.1325 612 0 593.868 0 571.5V571.5Z" fill="#F0513E"/>
</g>
<defs>
<filter id="filter0_d" x="301.374" y="130" width="184.626" height="398.901" filterUnits="userSpaceOnUse" color-interpolation-filters="sRGB">
<feFlood flood-opacity="0" result="BackgroundImageFix"/>
<feColorMatrix in="SourceAlpha" type="matrix" values="0 0 0 0 0 0 0 0 0 0 0 0 0 0 0 0 0 0 127 0"/>
<feOffset dx="10" dy="4"/>
<feGaussianBlur stdDeviation="5"/>
<feColorMatrix type="matrix" values="0 0 0 0 0 0 0 0 0 0 0 0 0 0 0 0 0 0 0.7 0"/>
<feBlend mode="normal" in2="BackgroundImageFix" result="effect1_dropShadow"/>
<feBlend mode="normal" in="SourceGraphic" in2="effect1_dropShadow" result="shape"/>
</filter>
<filter id="filter1_d" x="217" y="439" width="375" height="142" filterUnits="userSpaceOnUse" color-interpolation-filters="sRGB">
<feFlood flood-opacity="0" result="BackgroundImageFix"/>
<feColorMatrix in="SourceAlpha" type="matrix" values="0 0 0 0 0 0 0 0 0 0 0 0 0 0 0 0 0 0 127 0"/>
<feOffset dx="10" dy="4"/>
<feGaussianBlur stdDeviation="5"/>
<feColorMatrix type="matrix" values="0 0 0 0 0 0 0 0 0 0 0 0 0 0 0 0 0 0 0.7 0"/>
<feBlend mode="normal" in2="BackgroundImageFix" result="effect1_dropShadow"/>
<feBlend mode="normal" in="SourceGraphic" in2="effect1_dropShadow" result="shape"/>
</filter>
<clipPath id="clip0">
<rect width="156" height="242" fill="white" transform="matrix(-1 0 0 1 625 567)"/>
</clipPath>
</defs>
</svg>
