<svg width="185" height="384" viewBox="0 0 185 384" fill="none" xmlns="http://www.w3.org/2000/svg">
<path d="M23.4303 358.849L8.51176 351.574L26.804 322.661L41.7535 329.936L23.4303 358.849Z" fill="#E0A2A5"/>
<path d="M9.68779 349.16L28.5991 358.447L41.1344 372.718C42.2868 374.253 42.9946 376.076 43.1802 377.987C43.3659 379.898 43.0221 381.823 42.1867 383.552L0 363.028L9.68779 349.16Z" fill="#262127"/>
<path d="M29.8063 359.84L28.3516 351.977C27.6159 351.365 26.735 350.952 25.7937 350.779C24.8524 350.607 23.8825 350.679 22.9774 350.99C22.0723 351.301 21.2626 351.84 20.6263 352.555C19.9901 353.27 19.5487 354.137 19.3447 355.072L29.8063 359.84Z" fill="#262127"/>
<path d="M103.006 160.823L95.361 246.262L40.0819 345.197L11.8233 330.37L62.6764 225.738L83.2281 160.359L103.006 160.823Z" fill="#090909"/>
<path d="M76.9451 369.219H60.3552L62.6765 346.064H79.2974L76.9451 369.219Z" fill="#E0A2A5"/>
<path d="M60.3243 366.526H81.4022L98.9207 373.863C100.623 374.745 102.051 376.078 103.05 377.715C104.048 379.352 104.579 381.232 104.585 383.15H57.6935L60.3243 366.526Z" fill="#262127"/>
<path d="M83.1044 367.3L78.3688 360.892C77.4391 360.666 76.467 360.682 75.5452 360.939C74.6235 361.195 73.7827 361.683 73.1031 362.357C72.4235 363.03 71.9276 363.867 71.6628 364.786C71.398 365.706 71.3731 366.678 71.5905 367.61L83.1044 367.3Z" fill="#262127"/>
<path d="M96.1039 165.466L95.3611 246.262C95.3355 249.232 94.9825 252.191 94.3087 255.084L82.9805 351.605H53.4529V249.079L52.8339 150.639L96.1039 165.466Z" fill="#262127"/>
<path d="M98.4871 1.83242C101.98 0.203596 105.877 -0.356864 109.687 0.221413C113.498 0.799689 117.053 2.49094 119.905 5.08282C127.241 11.4598 125.879 20.3442 125.291 24.2756C125.038 25.7742 124.422 27.188 123.496 28.3928L113.839 40.0322L112.663 13.2242L100.282 7.77598L98.4871 1.83242Z" fill="#262127"/>
<path d="M74.3762 71.5766C71.6783 70.1042 69.6744 67.6218 68.804 64.6738C67.9337 61.7257 68.2679 58.5528 69.7335 55.8509L84.7448 28.238L105.08 39.3203L90.0685 66.9332C88.5964 69.6232 86.1199 71.6215 83.1797 72.4915C80.2396 73.3615 77.0747 73.0326 74.3762 71.5766Z" fill="#E1A4A7"/>
<path d="M96.0419 55.2937C92.3616 53.2281 89.6461 49.792 88.4867 45.7335C87.3273 41.6751 87.8179 37.3228 89.8516 33.6244L103.873 7.83801L117.398 13.4411C122.165 16.0414 123.96 27.9285 121.298 32.8196L111.672 50.5265C110.222 53.2215 107.765 55.2345 104.838 56.1273C101.911 57.0201 98.7494 56.7205 96.0419 55.2937Z" fill="#E1A4A7"/>
<path d="M118.327 37.7416V45.9759C118.36 46.222 118.323 46.4724 118.221 46.6988C118.119 46.9252 117.956 47.1185 117.75 47.257C117.544 47.3955 117.303 47.4735 117.055 47.4823C116.807 47.4912 116.561 47.4305 116.346 47.3071L110.156 43.9328L118.327 37.7416Z" fill="#E1A4A7"/>
<path d="M121.174 16.0104C117.452 11.3713 113.169 7.21205 108.423 3.62792C106.039 0.934744 104.058 2.35871 100.654 2.01819C98.383 0.822335 95.8418 0.233807 93.2767 0.309742C90.7116 0.385676 88.2097 1.12349 86.0137 2.45158C75.3664 9.97391 79.6067 25.7925 79.6067 25.7925L74.5926 37.8654C87.716 42.1373 91.523 33.8411 91.523 33.8411L99.0133 25.3901L102.851 17.5891L108.299 13.1933L114.21 15.0507C114.21 15.0507 129.377 25.3901 121.174 16.0104Z" fill="#262127"/>
<path d="M96.7229 31.3027C96.1751 32.3292 95.3353 33.1701 94.3096 33.7191C93.2839 34.268 92.1184 34.5004 90.9606 34.3868C89.8029 34.2732 88.7048 33.8187 87.8053 33.0808C86.9059 32.3429 86.2454 31.3548 85.9076 30.2414C85.5697 29.1281 85.5696 27.9395 85.9073 26.8261C86.245 25.7127 86.9052 24.7244 87.8046 23.9863C88.7039 23.2483 89.8019 22.7936 90.9597 22.6798C92.1174 22.566 93.2829 22.7982 94.3087 23.347C95.6831 24.0823 96.7095 25.3334 97.1622 26.8251C97.6148 28.3169 97.4568 29.9274 96.7229 31.3027Z" fill="#E1A4A7"/>
<path d="M113.189 47.9569C111.472 46.9771 109.571 46.3639 107.605 46.1561C105.639 45.9483 103.652 46.1504 101.768 46.7496C99.9607 42.8016 99.2856 38.4289 99.8181 34.1195C100.365 28.5819 101.796 23.168 104.059 18.0843L98.2706 14.9886L95.1754 33.9028L89.2638 39.2582C88.341 40.5982 87.7194 42.1221 87.4415 43.7253C87.1637 45.3284 87.2363 46.9727 87.6543 48.5451C88.3383 51.2536 89.5133 53.8138 91.1208 56.0984C92.2172 57.7054 93.6902 59.0195 95.4113 59.926C97.1324 60.8326 99.0492 61.3039 100.994 61.299C110.373 62.3515 113.189 47.9569 113.189 47.9569Z" fill="#262127"/>
<path d="M113.189 38.0511C113.006 38.3848 112.699 38.6334 112.334 38.7434C111.97 38.8534 111.576 38.816 111.239 38.6392C111.043 38.5676 110.865 38.4547 110.717 38.3083C110.569 38.1619 110.454 37.9853 110.38 37.7905C110.305 37.5957 110.274 37.3873 110.287 37.1793C110.301 36.9713 110.359 36.7687 110.457 36.585C110.556 36.4014 110.693 36.2411 110.859 36.1149C111.024 35.9887 111.215 35.8996 111.419 35.8537C111.622 35.8078 111.833 35.8061 112.037 35.8488C112.241 35.8914 112.433 35.9773 112.601 36.1008C112.935 36.2842 113.183 36.5912 113.293 36.9559C113.403 37.3205 113.366 37.7137 113.189 38.0511Z" fill="#202020"/>
<path d="M110.094 31.5502L110.342 31.705L116.532 34.8006C116.861 34.9507 117.236 34.9668 117.577 34.8455C117.917 34.7241 118.198 34.4749 118.358 34.1506C118.437 33.99 118.484 33.8154 118.496 33.6367C118.508 33.4579 118.485 33.2786 118.427 33.1089C118.37 32.9392 118.279 32.7826 118.161 32.648C118.043 32.5133 117.9 32.4032 117.739 32.3241L111.549 29.3833C111.389 29.2995 111.214 29.249 111.034 29.2349C110.854 29.2208 110.674 29.2434 110.503 29.3013C110.332 29.3592 110.175 29.4512 110.041 29.5717C109.907 29.6923 109.798 29.8388 109.723 30.0024C109.61 30.266 109.585 30.5591 109.651 30.838C109.718 31.1169 109.874 31.3667 110.094 31.5502Z" fill="#262127"/>
<path d="M99.1991 17.0009C99.1991 17.0009 104.925 26.2878 108.825 25.6377C108.825 25.6377 110.249 25.6377 111.022 23.4088C111.022 23.4088 118.141 36.3794 125.941 31.5193C125.941 31.5193 127.86 30.2811 123.929 28.5785C126.281 29.0936 128.73 28.9307 130.993 28.1087C133.256 27.2867 135.239 25.8395 136.712 23.9351C141.262 17.3414 134.267 12.017 130.862 11.5526C127.812 11.5167 124.84 10.5797 122.32 8.85943C117.12 5.76382 108.98 -5.99947 99.3848 4.77325L99.1991 17.0009Z" fill="#262127"/>
<path d="M116.748 102.378C115.182 103.915 114.108 105.884 113.665 108.033C113.221 110.183 113.427 112.415 114.257 114.447C115.087 116.479 116.504 118.217 118.325 119.441C120.147 120.665 122.292 121.318 124.486 121.318C126.681 121.318 128.825 120.665 130.647 119.441C132.469 118.217 133.885 116.479 134.715 114.447C135.545 112.415 135.751 110.183 135.308 108.033C134.864 105.884 133.791 103.915 132.224 102.378C130.158 100.351 127.38 99.2158 124.486 99.2158C121.592 99.2158 118.814 100.351 116.748 102.378Z" fill="#E1A4A7"/>
<path d="M132.781 102.718L143.057 108.91C143.489 109.135 143.817 109.518 143.973 109.98C144.128 110.441 144.1 110.945 143.893 111.386C143.717 111.762 143.405 112.057 143.02 112.212C142.636 112.367 142.206 112.371 141.819 112.222L129.779 107.578L132.781 102.718Z" fill="#E1A4A7"/>
<path d="M120.215 100.025L101.768 106.588L102.851 121.106L121.948 111.108L120.215 100.025Z" fill="#E1A4A7"/>
<path d="M105.853 100.799L110.96 122.778L77.1305 137.946L71.2497 115.627L105.853 100.799Z" fill="#DBAF37"/>
<path d="M93.2874 75.8795C93.2874 75.8795 90.1923 65.0139 87.0972 62.3207C82.7824 59.0651 77.9902 56.4964 72.8905 54.7056C72.2874 54.5421 71.6546 54.5213 71.0422 54.6449C70.4297 54.7685 69.8545 55.033 69.362 55.4175C58.6503 63.9874 51.271 76.0327 48.5008 89.4693C44.2295 108.538 45.7152 177.323 45.7152 177.323C64.286 186.888 106.07 172.865 106.07 172.865C101.768 140.113 100.499 106.093 93.2874 75.8795Z" fill="#EFC22E"/>
<path d="M69.2382 55.5104C69.2382 55.5104 77.626 73.8984 90.9042 74.2389C91.1163 74.2442 91.3268 74.2009 91.5197 74.1125C91.7126 74.024 91.8827 73.8927 92.0171 73.7284C92.1514 73.5641 92.2465 73.3713 92.295 73.1647C92.3435 72.9581 92.3442 72.7432 92.297 72.5363C91.1109 67.7965 88.82 63.4048 85.6115 59.7204C79.7617 53.2197 74.5 50.7432 69.2382 55.5104Z" fill="#E1A4A7"/>
<path d="M118.358 134.108L136.248 134.758L140.488 145.159L116.563 146.088L118.358 134.108Z" fill="#E1A4A7"/>
<path d="M157.202 134.108C155.871 139.835 146.276 145.345 140.488 145.159C139.16 145.17 137.845 144.897 136.632 144.356C135.419 143.816 134.336 143.022 133.456 142.027C132.576 141.033 131.919 139.861 131.531 138.591C131.142 137.321 131.03 135.982 131.203 134.665C131.331 131.854 132.551 129.204 134.603 127.279C136.655 125.354 139.378 124.305 142.191 124.357C148.102 124.542 159.307 125.131 157.202 134.108Z" fill="#E1A4A7"/>
<path d="M104.213 149.493L58.0646 124.357L57.4146 146.707C57.5429 149.65 58.8088 152.427 60.9453 154.454C63.0817 156.481 65.9218 157.599 68.8666 157.573L104.925 155.437L104.213 149.493Z" fill="#DBAF37"/>
<path d="M83.1971 77.7368V82.4422L83.3828 127.607L127.334 129.712L127.148 148.719L70.9713 150.638C68.5507 150.431 66.2307 149.576 64.2549 148.162C62.9477 147.217 61.8612 146 61.0703 144.595C60.2794 143.189 59.8031 141.628 59.6741 140.021L54.3814 88.6024L83.1971 77.7368Z" fill="#EFC22E"/>
<path d="M80.2258 80.5538L83.7233 125.75L80.3805 125.719L80.2258 80.5538Z" fill="#DBAF37"/>
<path d="M80.2258 80.5538L83.7233 125.75L80.3805 125.719L80.2258 80.5538Z" fill="#DBAF37"/>
<path d="M157.295 129.805L95.8563 132.22C95.4092 132.236 94.9631 132.164 94.5437 132.008C94.1243 131.852 93.7397 131.615 93.412 131.31C93.0843 131.006 92.8199 130.639 92.6339 130.232C92.4479 129.825 92.3439 129.385 92.3279 128.938C92.2943 128.032 92.6204 127.149 93.235 126.482C93.8496 125.815 94.7029 125.418 95.6088 125.378L157.016 122.995C157.462 122.974 157.907 123.042 158.327 123.194C158.746 123.347 159.131 123.581 159.459 123.883C159.787 124.186 160.052 124.55 160.238 124.955C160.425 125.361 160.529 125.799 160.545 126.245C160.566 126.692 160.498 127.139 160.346 127.56C160.194 127.981 159.96 128.368 159.658 128.699C159.356 129.03 158.992 129.298 158.587 129.487C158.181 129.677 157.742 129.785 157.295 129.805Z" fill="black"/>
<path d="M156.15 126.709C156.332 126.679 156.505 126.608 156.655 126.501C156.805 126.393 156.929 126.253 157.016 126.09L183.944 78.0154C184.026 77.8692 184.078 77.7082 184.098 77.5418C184.117 77.3753 184.104 77.2065 184.058 77.0454C184.011 76.8842 183.934 76.7337 183.83 76.6027C183.725 76.4716 183.596 76.3626 183.449 76.2818C183.147 76.1227 182.796 76.0853 182.468 76.1775C182.14 76.2696 181.859 76.4842 181.685 76.7771L154.788 124.852C154.706 124.998 154.653 125.159 154.634 125.326C154.614 125.492 154.628 125.661 154.674 125.822C154.72 125.983 154.798 126.134 154.902 126.265C155.007 126.396 155.136 126.505 155.283 126.586C155.547 126.731 155.855 126.775 156.15 126.709Z" fill="black"/>
</svg>
