<svg width="230" height="230" viewBox="0 0 230 230" fill="none" xmlns="http://www.w3.org/2000/svg">
<path d="M114.512 229.134C177.755 229.134 229.023 177.841 229.023 114.567C229.023 51.2934 177.755 0 114.512 0C51.2686 0 0 51.2934 0 114.567C0 177.841 51.2686 229.134 114.512 229.134Z" fill="#8E569D"/>
<path d="M46.673 95.1286L64.1482 114.241L56.0076 109.897L46.673 115.219L65.2336 134.874L55.7905 129.77L46.673 135.2C77.0647 165.715 107.565 196.23 137.957 226.854C150.113 224.139 175.512 216.646 197.003 194.927C202.213 189.714 213.285 178.312 220.774 159.634C224.247 150.729 225.984 142.91 226.744 137.046C212.85 123.037 198.957 109.029 185.064 95.02L119.287 65.9167L78.2586 84.8122L46.673 95.1286Z" fill="#6B4674"/>
<path d="M46.673 134.223L55.6819 128.901L115.271 160.611L174.861 128.901L184.304 133.462L115.488 172.122L46.673 134.223Z" fill="white"/>
<path d="M55.899 109.246L115.271 141.064L174.644 109.246L184.304 114.567L115.271 151.815L46.673 114.567L55.899 109.246Z" fill="white"/>
<path d="M46.673 94.6943L115.271 57.555L184.304 94.6943L115.488 132.376L46.673 94.6943Z" fill="white"/>
<path d="M66.1019 94.9114L115.271 68.1972L164.549 94.9114L115.271 122.06L66.1019 94.9114Z" fill="#6C4676"/>
</svg>
