<svg width="230" height="231" viewBox="0 0 230 231" fill="none" xmlns="http://www.w3.org/2000/svg">
<g clip-path="url(#clip0)">
<path d="M115.051 230.86C178.592 230.86 230.102 179.18 230.102 115.43C230.102 51.6798 178.592 0 115.051 0C51.5101 0 0 51.6798 0 115.43C0 179.18 51.5101 230.86 115.051 230.86Z" fill="#F9B2B2"/>
<path d="M47.7763 182.517L105.455 230.758C111.784 231.167 164.052 233.728 200.905 192.042C232.45 156.399 230.306 113.996 229.694 106.007C213.462 88.4929 197.128 70.9787 180.897 53.4645L140.573 73.0271L135.468 65.8576L102.29 70.6714L97.5943 65.96L92.8984 68.3157L85.2419 56.5371L48.3888 80.0943C55.0244 91.7704 61.5579 103.344 68.1935 115.02C67.7852 118.503 67.2747 121.985 66.8664 125.365L47.7763 182.517Z" fill="#FF5F5F"/>
<path d="M163.95 87.3662H154.456C154.456 82.6548 142.614 82.6548 142.614 68.3157C142.614 57.5613 153.231 49.2651 163.95 49.2651C174.669 49.2651 185.286 57.5613 185.286 68.3157C185.286 82.5524 173.444 82.5524 173.444 87.3662H163.95Z" fill="#FFEB99"/>
<path d="M173.444 87.3662C176.099 87.3662 178.14 89.5171 178.14 92.0777C178.14 94.7406 175.996 96.7891 173.444 96.7891H154.456C151.802 96.7891 149.76 94.6382 149.76 92.0777C149.76 89.4147 151.904 87.3662 154.456 87.3662H173.444Z" fill="#57A4FF"/>
<path d="M173.444 96.8915C176.099 96.8915 178.14 99.0424 178.14 101.603C178.14 104.266 175.996 106.314 173.444 106.314H154.456C151.802 106.314 149.76 104.163 149.76 101.603C149.76 98.94 151.904 96.8915 154.456 96.8915H173.444Z" fill="#57A4FF"/>
<path d="M173.444 106.417V111.128C173.444 113.791 171.3 115.84 168.748 115.84H159.254C156.6 115.84 154.558 113.689 154.558 111.128V106.417H173.444Z" fill="#C6C5CA"/>
<path d="M185.286 68.3157C185.286 82.5524 173.444 82.5524 173.444 87.3663H163.95C163.95 82.6548 175.792 82.6548 175.792 68.3157C175.792 59.0977 168.136 51.8257 159.152 49.8797C160.684 49.47 162.317 49.3676 163.848 49.3676C174.669 49.2652 185.286 57.5614 185.286 68.3157Z" fill="#FFDE55"/>
<path d="M178.14 92.0777C178.14 94.7406 175.996 96.7891 173.444 96.7891H163.95C166.605 96.7891 168.646 94.6382 168.646 92.0777C168.646 89.4147 166.502 87.3662 163.95 87.3662H173.444C176.099 87.3662 178.14 89.5171 178.14 92.0777Z" fill="#2488FF"/>
<path d="M178.14 101.603C178.14 104.266 175.996 106.314 173.444 106.314H163.95C166.605 106.314 168.646 104.163 168.646 101.603C168.646 98.94 166.502 96.8915 163.95 96.8915H173.444C176.099 96.8915 178.14 99.0424 178.14 101.603Z" fill="#2488FF"/>
<path d="M173.444 106.417V111.128C173.444 113.791 171.3 115.84 168.748 115.84H159.254C161.909 115.84 163.95 113.689 163.95 111.128V106.417H173.444Z" fill="#ACABB1"/>
<path d="M140.675 175.757L142.614 182.517H110.151C117.093 177.6 121.278 169.611 121.278 161.11H125.974C128.628 161.11 130.67 158.959 130.67 156.399V151.585C130.67 148.922 128.526 146.874 125.974 146.874H121.278V134.993L85.7523 125.467L69.1123 134.993V146.874H64.3142C61.66 146.874 59.6183 149.024 59.6183 151.585V156.296C59.6183 158.959 61.7621 161.008 64.3142 161.008H69.0102C69.0102 169.509 73.1957 177.498 80.1376 182.414H47.7763L49.818 175.245C51.6556 168.894 52.5743 162.339 52.4723 155.784V150.254C52.4723 127.516 69.7248 107.851 92.2858 106.417C115.766 104.778 136.183 122.6 137.714 146.259C137.816 147.181 137.816 148.205 137.816 149.127V155.887C137.918 162.647 138.837 169.304 140.675 175.757Z" fill="#FFDE55"/>
<path d="M142.614 182.517H133.12L131.181 175.757C129.751 170.738 128.833 165.617 128.526 160.393C129.956 159.472 130.772 158.038 130.772 156.399V151.585C130.772 149.844 129.854 148.308 128.322 147.488C127.506 126.389 111.376 108.977 90.4483 106.724C91.0608 106.622 91.6733 106.622 92.2858 106.519C115.766 104.88 136.183 122.702 137.714 146.361C137.816 147.283 137.816 148.308 137.816 149.229V155.989C137.816 162.647 138.735 169.407 140.573 175.859L142.614 182.517Z" fill="#FFCD00"/>
<path d="M130.772 151.585V156.296C130.772 158.959 128.628 161.008 126.076 161.008H121.38V146.771H126.076C128.628 146.874 130.772 148.922 130.772 151.585Z" fill="#FFC477"/>
<path d="M121.278 134.89V161.11C121.278 175.552 109.64 187.33 95.1442 187.33C80.648 187.33 69.0102 175.654 69.0102 161.11V134.89L85.6502 125.365L121.278 134.89Z" fill="#FFDAAA"/>
<path d="M121.278 134.89V161.11C121.278 175.552 109.64 187.228 95.1442 187.33C93.5109 187.33 91.9796 187.228 90.4483 186.921C94.1234 186.306 97.5943 184.77 100.657 182.619C107.599 177.703 111.784 169.714 111.784 161.213V134.993L82.6897 127.106L85.7523 125.365L121.278 134.89Z" fill="#FFC477"/>
<path d="M85.6502 73.0271L80.9543 74.1538L83.4043 78.3531L76.6667 85.113L72.4811 82.6548L71.4603 87.3663H61.9663L60.8433 82.6548L56.6578 85.113L49.9201 78.3531L52.3702 74.1538L47.6742 73.0271V63.5018L52.3702 62.3752L49.9201 58.1759L56.6578 51.416L60.8433 53.8741L61.9663 49.1627H71.4603L72.5832 53.8741L76.7687 51.416L83.5064 58.1759L81.0564 62.3752L85.7523 63.5018V73.0271H85.6502Z" fill="#FFEB99"/>
<path d="M66.7643 75.4852C70.7109 75.4852 73.9103 72.2753 73.9103 68.3157C73.9103 64.356 70.7109 61.1461 66.7643 61.1461C62.8177 61.1461 59.6183 64.356 59.6183 68.3157C59.6183 72.2753 62.8177 75.4852 66.7643 75.4852Z" fill="#C6C5CA"/>
<path d="M69.1123 146.874V161.11H64.3142C61.66 161.11 59.6183 158.959 59.6183 156.399V151.585C59.6183 148.922 61.7621 146.874 64.3142 146.874H69.1123Z" fill="#FFC477"/>
<path d="M144.86 181.8L142.921 175.04C141.083 168.792 140.164 162.339 140.266 155.887V149.127C140.266 124.136 120.155 103.959 95.2463 103.959C94.2255 103.959 93.2046 103.959 92.1837 104.061C68.1935 106.007 49.9201 126.184 50.1243 150.254V155.784C50.1243 162.135 49.2055 168.485 47.47 174.63L45.4283 181.8C45.2241 182.517 45.3262 183.234 45.8367 183.848C46.245 184.463 46.9596 184.77 47.7763 184.77H79.5251C89.0191 191.12 101.371 191.12 110.968 184.77H142.716C143.431 184.77 144.146 184.463 144.656 183.848C144.962 183.336 145.064 182.517 144.86 181.8ZM95.1442 184.872C82.0772 184.872 71.4603 174.22 71.4603 161.11V136.324L86.0586 127.925L118.93 136.734V161.11C118.828 174.22 108.313 184.872 95.1442 184.872ZM116.378 180.161C120.564 175.552 123.014 169.714 123.524 163.466H125.974C129.854 163.466 133.12 160.291 133.12 156.296V151.585C133.12 147.693 129.956 144.415 125.974 144.415H123.626V134.89C123.626 133.764 122.912 132.842 121.891 132.534L86.3648 123.009C85.7523 122.907 85.1398 122.907 84.5273 123.214L67.8873 132.739C67.1726 133.149 66.6622 133.968 66.6622 134.788V144.313H64.3142C60.435 144.313 57.1682 147.488 57.1682 151.483V156.194C57.1682 160.086 60.3329 163.364 64.3142 163.364H66.7643C67.2747 169.509 69.8269 175.449 73.9103 180.058H50.8389L52.0639 175.859C53.9015 169.304 54.8202 162.544 54.8202 155.682V150.151C54.514 128.54 70.9498 110.411 92.3879 108.67C114.643 107.134 133.835 124.033 135.264 146.361C135.366 147.283 135.366 148.205 135.366 149.024V155.784C135.366 162.749 136.387 169.611 138.225 176.269L139.245 179.956L116.378 180.161ZM123.626 158.755V149.229H125.974C127.301 149.229 128.322 150.254 128.322 151.585V156.296C128.322 157.628 127.301 158.652 125.974 158.652H123.626V158.755ZM66.7643 149.229V158.755H64.3142C62.9871 158.755 61.9663 157.73 61.9663 156.399V151.585C61.9663 150.254 62.9871 149.229 64.3142 149.229H66.7643Z" fill="black"/>
<path d="M187.634 68.3157C187.634 55.5129 175.384 46.9094 163.95 46.9094C152.517 46.9094 140.266 55.5129 140.266 68.3157C139.96 75.178 143.533 81.733 149.556 85.113C149.964 85.4202 150.475 85.7275 150.883 86.0348C147.514 87.9808 146.391 92.2825 148.331 95.6625C148.535 96.0721 148.842 96.4818 149.25 96.8915C148.025 98.223 147.412 99.8618 147.412 101.603C147.412 104.573 149.352 107.339 152.108 108.363V111.128C152.108 115.02 155.273 118.298 159.254 118.298H168.748C172.628 118.298 175.894 115.123 175.894 111.128V108.363C178.753 107.339 180.59 104.676 180.59 101.603C180.59 99.8618 179.876 98.1206 178.753 96.8915C181.407 94.0237 181.203 89.6195 178.344 86.9566C177.936 86.6493 177.528 86.342 177.119 86.0348C177.528 85.7275 178.038 85.3178 178.447 85.113C184.368 81.733 187.941 75.178 187.634 68.3157ZM171.096 111.128C171.096 112.46 170.075 113.484 168.748 113.484H159.254C157.927 113.484 156.906 112.46 156.906 111.128V108.773H171.096V111.128ZM173.444 103.959H154.456C153.129 103.959 152.108 102.934 152.108 101.603C152.108 100.271 153.129 99.2472 154.456 99.2472H173.444C174.771 99.2472 175.792 100.271 175.792 101.603C175.792 102.934 174.771 103.959 173.444 103.959ZM173.444 94.4334H154.456C153.129 94.4334 152.108 93.4092 152.108 92.0777C152.108 90.7462 153.129 89.722 154.456 89.722H173.444C174.771 89.722 175.792 90.7462 175.792 92.0777C175.792 93.4092 174.771 94.4334 173.444 94.4334ZM175.69 81.1185C174.057 82.0403 172.73 83.3718 171.709 84.9081H166.4V70.6714H171.096V65.96H156.906V70.6714H161.602V85.0105H156.294C155.273 83.4742 153.844 82.1427 152.312 81.2209C148.944 78.8652 145.064 76.2022 145.064 68.4181C145.064 58.5856 155.069 51.7233 164.052 51.7233C173.036 51.7233 183.04 58.5856 183.04 68.4181C182.938 76.0998 179.059 78.7628 175.69 81.1185Z" fill="black"/>
<path d="M161.602 123.009H166.298V127.721H161.602V123.009Z" fill="black"/>
<path d="M166.298 132.534V153.941C166.298 155.272 165.277 156.296 163.95 156.296H144.962V151.585H161.602V132.534H166.298Z" fill="black"/>
<path d="M66.7643 77.841C71.9707 77.841 76.2583 73.5392 76.2583 68.3157C76.2583 63.0921 71.9707 58.7904 66.7643 58.7904C61.5579 58.7904 57.2703 63.0921 57.2703 68.3157C57.2703 73.5392 61.4558 77.841 66.7643 77.841ZM66.7643 63.6043C69.4185 63.6043 71.4603 65.7551 71.4603 68.3157C71.4603 70.8762 69.3165 73.0271 66.7643 73.0271C64.1101 73.0271 62.0683 70.8762 62.0683 68.3157C62.0683 65.7551 64.1101 63.6043 66.7643 63.6043Z" fill="black"/>
<path d="M86.2628 61.2486L84.6294 60.8389L85.4461 59.405C85.9565 58.4831 85.8544 57.2541 85.1398 56.5371L78.4021 49.7773C77.5854 49.0603 76.4625 48.8555 75.5437 49.47L74.1145 50.2894L73.7062 48.6506C73.3999 47.6264 72.4811 46.807 71.3582 46.807H61.8642C60.7412 46.807 59.8225 47.524 59.5162 48.6506L59.1079 50.2894L57.6786 49.47C56.7599 48.9579 55.5348 49.0603 54.8202 49.7773L48.0825 56.5371C47.2659 57.3565 47.1638 58.4831 47.7763 59.405L48.593 60.8389L46.9596 61.2486C45.9387 61.5558 45.1221 62.4776 45.1221 63.6043V73.1295C45.1221 74.2562 45.8367 75.178 46.9596 75.4852L48.593 75.8949L47.7763 77.3289C47.2659 78.2507 47.3679 79.4797 48.0825 80.1967L54.8202 86.9566C55.6369 87.6735 56.7599 87.8783 57.6786 87.2638L59.1079 86.4444L59.5162 88.0832C59.8225 89.1074 60.7412 89.9268 61.8642 89.9268H71.4603C72.5832 89.9268 73.502 89.2098 73.8083 88.0832L74.2166 86.4444L75.6458 87.2638C76.5646 87.7759 77.7896 87.6735 78.5042 86.9566L85.2419 80.1967C86.0586 79.3773 86.1607 78.2507 85.5482 77.3289L84.6294 75.7925L86.2628 75.3828C87.2836 75.0756 88.1003 74.1538 88.1003 73.0271V63.5018C88.1003 62.4776 87.2836 61.5558 86.2628 61.2486ZM83.3023 71.1835L80.4438 71.9005C79.7292 72.1053 79.1167 72.6174 78.8105 73.3344C78.5042 74.0513 78.6063 74.8707 79.0146 75.4852L80.5459 78.0458L76.4625 82.1427L73.9103 80.6064C73.2978 80.1967 72.4811 80.1967 71.7665 80.5039C71.0519 80.8112 70.5415 81.4257 70.3373 82.1427L69.6227 85.0105H63.8038L63.0892 82.1427C62.885 81.4257 62.3746 80.8112 61.66 80.5039C60.9454 80.1967 60.1287 80.2991 59.5162 80.6064L56.964 82.1427L52.8806 78.0458L54.4119 75.4852C54.8202 74.8707 54.8202 74.0513 54.6161 73.3344C54.3098 72.6174 53.6973 72.1053 52.9827 71.9005L50.1243 71.1835V65.3454L52.9827 64.6285C53.6973 64.4236 54.3098 63.9115 54.6161 63.1946C54.9223 62.4776 54.8202 61.6582 54.4119 61.0437L52.8806 58.4831L56.964 54.3863L59.5162 55.9226C60.1287 56.3323 60.9454 56.3323 61.66 56.1274C62.3746 55.8202 62.885 55.2056 63.0892 54.4887L63.8038 51.6209H69.6227L70.3373 54.4887C70.5415 55.2056 71.0519 55.8202 71.7665 56.1274C72.4811 56.4347 73.2978 56.3323 73.9103 55.9226L76.4625 54.3863L80.5459 58.4831L79.0146 61.0437C78.6063 61.6582 78.6063 62.4776 78.8105 63.1946C79.1167 63.9115 79.7292 64.4236 80.4438 64.6285L83.3023 65.3454V71.1835Z" fill="black"/>
<path d="M92.7963 65.96H97.4922V70.6714H92.7963V65.96Z" fill="black"/>
<path d="M102.29 65.96H135.468V70.6714H102.29V65.96Z" fill="black"/>
<path d="M64.3142 94.4334H69.0102V108.67H64.3142V94.4334Z" fill="black"/>
</g>
<defs>
<clipPath id="clip0">
<rect width="230" height="230.962" fill="white"/>
</clipPath>
</defs>
</svg>
