<svg width="230" height="230" viewBox="0 0 230 230" fill="none" xmlns="http://www.w3.org/2000/svg">
<g clip-path="url(#clip0)">
<path d="M115 230C178.513 230 230 178.513 230 115C230 51.4873 178.513 0 115 0C51.4873 0 0 51.4873 0 115C0 178.513 51.4873 230 115 230Z" fill="#C49A6C"/>
<path d="M43.586 189.32L173.562 64.5967C192.002 86.8367 210.442 108.965 228.994 131.205C227.094 142.604 221.283 167.527 201.054 190.661C187.085 206.642 171.774 215.471 162.051 220.053C153.333 223.965 138.805 229.106 120.141 230C102.93 230.782 88.9601 227.541 80.1312 224.747C74.655 219.83 69.0671 214.801 63.5909 209.883C56.9971 202.954 50.2915 196.137 43.586 189.32Z" fill="#A97C50"/>
<path d="M193.231 150.428C191.443 152.216 188.537 152.216 186.749 150.428L156.91 120.588L163.392 114.106L193.231 143.946C195.019 145.734 195.019 148.639 193.231 150.428Z" fill="#484B63"/>
<path d="M138.134 190.549H44.7036C44.033 190.549 43.4742 189.99 43.4742 189.32V57.3323C43.4742 56.6618 44.033 56.103 44.7036 56.103H138.134C138.805 56.103 139.363 56.6618 139.363 57.3323V189.32C139.252 189.99 138.805 190.549 138.134 190.549Z" fill="#D8D5ED"/>
<path d="M70.5199 179.932H54.6502C53.9796 179.932 53.4208 179.373 53.4208 178.703V131.876C53.4208 131.205 53.9796 130.646 54.6502 130.646H70.5199C71.1905 130.646 71.7493 131.205 71.7493 131.876V178.814C71.6375 179.485 71.0787 179.932 70.5199 179.932Z" fill="#FF2C5C"/>
<path d="M99.0185 179.932H83.1487C82.4781 179.932 81.9193 179.373 81.9193 178.703V113.547C81.9193 112.877 82.4781 112.318 83.1487 112.318H99.0185C99.689 112.318 100.248 112.877 100.248 113.547V178.814C100.248 179.485 99.689 179.932 99.0185 179.932Z" fill="#FFD659"/>
<path d="M128.188 179.932H112.318C111.647 179.932 111.088 179.373 111.088 178.703V120.253C111.088 119.582 111.647 119.023 112.318 119.023H128.188C128.858 119.023 129.417 119.582 129.417 120.253V178.814C129.417 179.485 128.858 179.932 128.188 179.932Z" fill="#4FC6F5"/>
<path d="M62.585 130.758V179.932H70.5199C71.1905 179.932 71.7493 179.373 71.7493 178.703V131.876C71.7493 131.205 71.1905 130.646 70.5199 130.646H62.585V130.758Z" fill="#E62753"/>
<path d="M91.0836 112.43V179.932H99.0184C99.689 179.932 100.248 179.373 100.248 178.703V113.547C100.248 112.877 99.689 112.318 99.0184 112.318H91.0836V112.43Z" fill="#FFBD54"/>
<path d="M120.253 119.135V179.932H128.188C128.858 179.932 129.417 179.373 129.417 178.703V120.253C129.417 119.582 128.858 119.023 128.188 119.023H120.253V119.135Z" fill="#3BB3E3"/>
<path d="M57.1088 70.6317H123.941C125.17 70.6317 126.176 69.6258 126.176 68.3965C126.176 67.1671 125.17 66.1613 123.941 66.1613H57.1088C55.8795 66.1613 54.8737 67.1671 54.8737 68.3965C54.8737 69.6258 55.8795 70.6317 57.1088 70.6317Z" fill="#50536E"/>
<path d="M123.941 76.3314H57.1088C55.8795 76.3314 54.8737 77.3372 54.8737 78.5666C54.8737 79.7959 55.8795 80.8018 57.1088 80.8018H123.941C125.17 80.8018 126.176 79.7959 126.176 78.5666C126.176 77.3372 125.17 76.3314 123.941 76.3314Z" fill="#50536E"/>
<path d="M123.941 86.5015H57.1088C55.8795 86.5015 54.8737 87.5073 54.8737 88.7366C54.8737 89.966 55.8795 90.9718 57.1088 90.9718H123.941C125.17 90.9718 126.176 89.966 126.176 88.7366C126.176 87.5073 125.17 86.5015 123.941 86.5015Z" fill="#50536E"/>
<path d="M74.0962 96.5598H57.1088C55.8795 96.5598 54.8737 97.5656 54.8737 98.7949C54.8737 100.024 55.8795 101.03 57.1088 101.03H74.208C75.4373 101.03 76.4431 100.024 76.4431 98.7949C76.4431 97.5656 75.3256 96.5598 74.0962 96.5598Z" fill="#50536E"/>
<path d="M131.205 136.122C157.869 136.122 179.485 114.507 179.485 87.8426C179.485 61.1783 157.869 39.5627 131.205 39.5627C104.541 39.5627 82.9252 61.1783 82.9252 87.8426C82.9252 114.507 104.541 136.122 131.205 136.122Z" fill="#50536E"/>
<path d="M158.921 115.559C143.61 130.87 118.8 130.87 103.489 115.559C88.1778 100.248 88.1778 75.4373 103.489 60.1263C118.8 44.8154 143.61 44.8154 158.921 60.1263C174.232 75.4373 174.232 100.248 158.921 115.559Z" fill="#B5FCFF"/>
<path d="M158.921 60.0146C150.092 51.1856 138.134 47.4976 126.623 48.8387C135.117 49.8445 143.275 53.5325 149.757 60.0146C165.068 75.3255 165.068 100.136 149.757 115.447C143.275 121.929 135.117 125.617 126.623 126.623C138.134 127.964 150.092 124.276 158.921 115.447C174.232 100.248 174.232 75.3255 158.921 60.0146Z" fill="#71F6FC"/>
</g>
<defs>
<clipPath id="clip0">
<rect width="230" height="230" fill="white"/>
</clipPath>
</defs>
</svg>
