<svg width="370" height="409" viewBox="0 0 370 409" fill="none" xmlns="http://www.w3.org/2000/svg">
<rect x="0.5" y="0.5" width="369" height="408" rx="23.5" fill="#E1DCFF"/>
<g clip-path="url(#clip0)" filter="url(#filter0_d)">
<path d="M174.512 304.134C237.755 304.134 289.023 252.841 289.023 189.567C289.023 126.293 237.755 75 174.512 75C111.269 75 60 126.293 60 189.567C60 252.841 111.269 304.134 174.512 304.134Z" fill="#8E569D"/>
<path d="M106.673 170.129L124.148 189.241L116.008 184.897L106.673 190.219L125.234 209.874L115.79 204.77L106.673 210.2C137.065 240.715 167.565 271.23 197.957 301.854C210.113 299.139 235.512 291.646 257.003 269.927C262.213 264.714 273.285 253.312 280.774 234.634C284.247 225.729 285.984 217.91 286.744 212.046C272.85 198.037 258.957 184.029 245.064 170.02L179.287 140.917L138.259 159.812L106.673 170.129Z" fill="#6B4674"/>
<path d="M106.673 209.223L115.682 203.901L175.271 235.611L234.861 203.901L244.304 208.462L175.488 247.122L106.673 209.223Z" fill="white"/>
<path d="M115.899 184.246L175.271 216.064L234.644 184.246L244.304 189.567L175.271 226.815L106.673 189.567L115.899 184.246Z" fill="white"/>
<path d="M106.673 169.694L175.271 132.555L244.304 169.694L175.488 207.376L106.673 169.694Z" fill="white"/>
<path d="M126.102 169.911L175.271 143.197L224.549 169.911L175.271 197.06L126.102 169.911Z" fill="#6C4676"/>
</g>
<rect x="0.5" y="0.5" width="369" height="408" rx="23.5" stroke="#EAEAEA"/>
<defs>
<filter id="filter0_d" x="55" y="70" width="250" height="249.025" filterUnits="userSpaceOnUse" color-interpolation-filters="sRGB">
<feFlood flood-opacity="0" result="BackgroundImageFix"/>
<feColorMatrix in="SourceAlpha" type="matrix" values="0 0 0 0 0 0 0 0 0 0 0 0 0 0 0 0 0 0 127 0"/>
<feOffset dx="5" dy="5"/>
<feGaussianBlur stdDeviation="5"/>
<feColorMatrix type="matrix" values="0 0 0 0 0 0 0 0 0 0 0 0 0 0 0 0 0 0 0.75 0"/>
<feBlend mode="normal" in2="BackgroundImageFix" result="effect1_dropShadow"/>
<feBlend mode="normal" in="SourceGraphic" in2="effect1_dropShadow" result="shape"/>
</filter>
<clipPath id="clip0">
<rect width="230" height="229.025" fill="white" transform="translate(60 75)"/>
</clipPath>
</defs>
</svg>
